<?xml version="1.0" encoding="utf-8"?>
<!-- Generator: Adobe Illustrator 22.0.0, SVG Export Plug-In . SVG Version: 6.00 Build 0)  -->
<svg version="1.1" id="Layer_1" xmlns="http://www.w3.org/2000/svg" xmlns:xlink="http://www.w3.org/1999/xlink" x="0px" y="0px"
	 viewBox="0 0 94.9 170" style="enable-background:new 0 0 94.9 170;" xml:space="preserve">
<style type="text/css">
	.st0{fill:#D7E0E5;}
</style>
<g>
	<path class="st0" d="M81,22.5c-3.1,0.4-5.3,3.3-4.9,6.4c0.6,4.4,0.8,7.9,0.8,10.7c0,3.1-0.4,5.2-0.7,6.2c-0.3-0.1-0.7-0.4-1.2-0.6
		c-1.6-1-3.6-2.8-5-4.2c-0.7-0.7-1.3-1.4-1.7-1.9c-0.2-0.2-0.4-0.4-0.5-0.5c-0.1-0.1-0.1-0.1-0.1-0.1c0,0,0,0,0,0
		c-1.3-1.5-3.2-2.2-5-2.1c-0.2,0-0.5-0.1-0.7-0.1H34.3c-0.2,0-0.5,0-0.7,0.1c-1.8-0.2-3.7,0.5-5,2.1c0,0,0,0,0,0.1
		c-0.3,0.4-2.3,2.6-4.5,4.6c-1.1,1-2.3,1.9-3.3,2.4c-0.2,0.1-0.5,0.2-0.7,0.3c-0.3-1-0.7-3.1-0.7-6.2c0-2.7,0.2-6.3,0.8-10.7
		c0.4-3.1-1.8-6-4.9-6.4c-3.1-0.4-6,1.8-6.4,4.9c-0.6,4.8-0.9,8.8-0.9,12.2c0,5.1,0.6,9,2.3,12.3c0.9,1.6,2.1,3.2,3.8,4.2
		c1.6,1,3.5,1.5,5.2,1.5c0,0,0,0,0.1,0c3.1,0,5.4-1.1,7.5-2.3c0.7-0.4,1.4-0.9,2.1-1.4v107.2c0,4.9,4,8.9,8.9,8.9
		c4.9,0,8.9-4,8.9-8.9V96.4h3.3v64.7c0,4.9,4,8.9,8.9,8.9c4.9,0,8.9-4,8.9-8.9V53.9c0.7,0.5,1.3,0.9,2.1,1.4
		c2.1,1.2,4.4,2.3,7.5,2.3c0,0,0,0,0.1,0c1.7,0,3.6-0.5,5.2-1.5c2.5-1.6,4-4.1,4.9-6.8c0.9-2.7,1.2-5.8,1.2-9.7
		c0-3.4-0.3-7.4-0.9-12.2C87,24.3,84.1,22.1,81,22.5z"/>
	<circle class="st0" cx="48.1" cy="16.1" r="16.1"/>
	<path class="st0" d="M6.7,20.7C6.9,20.5,7,20.5,7,20.5c0.4-0.2,0.5-0.6,0.3-1c-0.2-0.4-0.6-0.5-1-0.3l0,0c0,0-2.8,1.3-2.9,4.4
		c0,0.8,0.2,1.8,0.8,2.8c0.1,0.2,0.4,0.4,0.6,0.4c0.1,0,0.2,0,0.3-0.1c0.4-0.2,0.5-0.6,0.3-1C5.1,24.9,5,24.2,5,23.6
		c0-1,0.5-1.8,1-2.3C6.2,21,6.5,20.8,6.7,20.7z"/>
	<path class="st0" d="M2.3,27.8c0.3-0.2,0.5-0.6,0.3-1c-0.8-1.5-1.1-2.7-1.1-3.7c0-1.7,0.8-2.9,1.6-3.7c0.4-0.4,0.8-0.7,1.1-1
		c0.3-0.2,0.5-0.3,0.5-0.3c0.3-0.2,0.5-0.6,0.3-1c-0.2-0.3-0.6-0.5-1-0.3h0c-0.1,0-3.8,2-3.9,6.3c0,1.3,0.4,2.8,1.3,4.4
		c0.1,0.2,0.4,0.4,0.6,0.4C2.1,27.9,2.2,27.9,2.3,27.8z"/>
	<path class="st0" d="M18.1,20.4c0,0.4,0.3,0.7,0.6,0.8c1.7,0.2,2.5,0.8,3,1.6c0.5,0.7,0.6,1.6,0.6,2.1c0,0.3,0,0.4,0,0.4
		c-0.1,0.4,0.2,0.8,0.6,0.8c0,0,0.1,0,0.1,0c0.4,0,0.7-0.3,0.7-0.6c0,0,0-0.2,0-0.6c0-0.7-0.1-1.8-0.8-2.9c-0.7-1.1-2-2.1-4.1-2.2
		C18.5,19.7,18.2,20,18.1,20.4z"/>
	<path class="st0" d="M19.5,18.1c3.1,0.2,4.5,1.4,5.3,2.7c0.8,1.3,0.9,2.8,0.9,3.4c0,0.2,0,0.3,0,0.3c0,0.4,0.3,0.7,0.7,0.8
		c0,0,0,0,0.1,0c0.4,0,0.7-0.3,0.7-0.7v0c0,0,0-0.2,0-0.4c0-0.8-0.1-2.5-1.1-4.2c-1-1.7-3-3.2-6.5-3.4c-0.4,0-0.7,0.3-0.8,0.7
		C18.8,17.7,19.1,18.1,19.5,18.1z"/>
	<path class="st0" d="M87.8,20.5c0,0,0.1,0,0.3,0.2c0.6,0.4,1.8,1.4,1.8,2.9c0,0.6-0.2,1.3-0.6,2.1c-0.2,0.4,0,0.8,0.3,1
		c0.1,0.1,0.2,0.1,0.3,0.1c0.3,0,0.5-0.1,0.6-0.4c0.5-1,0.8-2,0.8-2.8c0-3.1-2.8-4.3-2.9-4.4c-0.4-0.2-0.8,0-1,0.3
		C87.3,19.9,87.5,20.3,87.8,20.5z"/>
	<path class="st0" d="M90.3,18.1L90.3,18.1c0,0,0.2,0.1,0.5,0.3c0.9,0.7,2.7,2.2,2.6,4.7c0,1-0.3,2.3-1.1,3.7
		c-0.2,0.3-0.1,0.8,0.3,1c0.1,0.1,0.2,0.1,0.4,0.1c0.2,0,0.5-0.1,0.6-0.4c0.9-1.6,1.3-3.1,1.3-4.4c0-4.3-3.8-6.2-3.9-6.3
		c-0.3-0.2-0.8-0.1-1,0.3C89.8,17.5,90,17.9,90.3,18.1z"/>
	<path class="st0" d="M76.1,21.2c0.4,0,0.7-0.4,0.6-0.8c0-0.4-0.4-0.7-0.8-0.6c-2.1,0.2-3.4,1.1-4.1,2.2c-0.7,1.1-0.8,2.2-0.8,2.9
		c0,0.3,0,0.6,0,0.6c0.1,0.4,0.4,0.6,0.7,0.6c0,0,0.1,0,0.1,0c0.4-0.1,0.7-0.4,0.6-0.8v0c0,0,0-0.1,0-0.4c0-0.5,0.1-1.4,0.6-2.1
		C73.5,22,74.3,21.4,76.1,21.2z"/>
	<path class="st0" d="M67.7,24.2c0,0.2,0,0.4,0,0.4c0,0.4,0.3,0.7,0.7,0.7c0,0,0,0,0.1,0c0.4,0,0.7-0.4,0.7-0.8c0,0,0-0.1,0-0.3
		c0-0.6,0.1-2.1,0.9-3.4c0.8-1.3,2.3-2.5,5.3-2.7c0.4,0,0.7-0.4,0.7-0.8c0-0.4-0.4-0.7-0.8-0.7c-3.4,0.2-5.4,1.7-6.5,3.4
		C67.8,21.7,67.7,23.5,67.7,24.2z"/>
</g>
</svg>
