<?xml version="1.0" encoding="utf-8"?>
<!-- Generator: Adobe Illustrator 22.0.0, SVG Export Plug-In . SVG Version: 6.00 Build 0)  -->
<svg version="1.1" id="Layer_1" xmlns="http://www.w3.org/2000/svg" xmlns:xlink="http://www.w3.org/1999/xlink" x="0px" y="0px"
	 viewBox="0 0 77.4 203.3" style="enable-background:new 0 0 77.4 203.3;" xml:space="preserve">
<style type="text/css">
	.st0{fill:#D7E0E5;}
</style>
<g>
	<g>
		<path class="st0" d="M6.5,52.4c3,2.1,6.4,3.6,9.4,4.6c0.9,0.3,1.8,0.6,2.6,0.8v104.1c0,4.5,3.6,8.1,8.1,8.1c4.5,0,8.1-3.6,8.1-8.1
			V103h3v58.9c0,4.5,3.6,8.1,8.1,8.1c4.5,0,8.1-3.6,8.1-8.1V64c0.4,0.8,0.8,1.7,1.2,2.8c1.8,5.1,3.4,13.5,3.4,26.5
			c0,3.6-0.1,7.6-0.4,11.9c-0.2,2.9,2,5.3,4.9,5.5c0.1,0,0.2,0,0.3,0c2.7,0,5-2.1,5.2-4.9c0.3-4.5,0.4-8.7,0.4-12.5
			c0-19.7-3.2-30.6-7.5-37.2c-2.1-3.3-4.7-5.3-7-6.5c-2.2-1.1-4.1-1.4-5.3-1.4c-0.1,0-0.2,0-0.3,0H23.5c-0.5-0.1-1.7-0.3-3.1-0.8
			c-2.4-0.8-5.5-2.1-7.6-3.5c-1-0.7-1.8-1.4-2.2-1.9c-0.1-0.1-0.2-0.2-0.2-0.3c0.1-0.2,0.3-0.5,0.7-0.9c1.3-1.3,4.5-3.2,10-5.4
			c-0.7-1.8-1.1-3.7-1.1-5.8c0-1.8,0.3-3.6,0.9-5.3c-5.8,1.9-10.1,3.9-13.4,6c-2.3,1.5-4.1,3-5.4,4.9C0.9,37.3,0,39.6,0,41.9
			c0,1.8,0.5,3.5,1.3,4.9C2.6,49.3,4.5,50.9,6.5,52.4z"/>
		<circle class="st0" cx="36.1" cy="29.9" r="14.7"/>
		<path class="st0" d="M58,20.9c0.6,0.1,1.2,0,1.9-0.3c0.7-0.3,1.2-0.7,1.3-1.3c0.1-0.7-0.2-1.2-1-1.4c-0.4-0.4-0.7-0.6-1-0.7
			c-0.4-0.1-0.8-0.1-1.1,0.1c-0.1,0.1-0.2,0.1-0.4,0.2c-0.8,0.4-1.3,0.8-1.4,1.2c-0.1,0.5,0,1,0.3,1.4C57,20.5,57.4,20.8,58,20.9z"
			/>
		<path class="st0" d="M59.7,15.2c0.8,0.2,1.4,0.2,1.8,0c0.4-0.2,0.7-0.5,0.9-0.9c0.4-0.9,0.7-1.6,1.1-2.2c2.5-0.3,4.1-0.6,5-0.8
			c0.8-0.2,1.6-0.7,2.3-1.4C71.5,9,72,8,72.3,6.6l0,0c0.2-1.3,0.3-2.2,0.1-2.8c-0.2-0.6-0.7-1.4-1.6-2.3c-0.5-0.6-1.3-0.9-2.4-1.1
			c-0.5-0.1-1.1-0.2-1.6-0.3c-0.8-0.1-1.6-0.1-2.3,0.2l0,0c-0.9,0.3-1.7,0.7-2.4,1.2C61.5,2,61.1,2.5,61,3c-0.2,0.8,0.2,1.3,1,1.5
			c1.3,0.3,2.1,0,2.4-0.8c0.1-0.2,0.3-0.4,0.8-0.6c0.4-0.2,1.1-0.2,2.1,0c0.3,0.1,0.7,0.2,1,0.4c0.3,0.2,0.5,0.4,0.6,0.5
			c0.1,0.2,0.2,0.5,0.2,1.1c0,0.6,0,1,0,1.3c-0.1,0.4-0.3,0.9-0.6,1.3c-0.3,0.4-0.7,0.7-1,0.7l-2,0.4c-1.3,0.2-2.2,0.4-2.6,0.5
			c-0.5,0.1-1,0.4-1.6,0.7c-0.8,1-1.3,1.7-1.5,2.1c-0.2,0.3-0.4,0.7-0.5,1.2c-0.1,0.4-0.1,0.8,0,1.2C59.3,14.9,59.4,15.1,59.7,15.2z
			"/>
	</g>
</g>
</svg>
