<?xml version="1.0" encoding="utf-8"?>
<!-- Generator: Adobe Illustrator 22.0.0, SVG Export Plug-In . SVG Version: 6.00 Build 0)  -->
<svg version="1.1" id="Layer_1" xmlns="http://www.w3.org/2000/svg" xmlns:xlink="http://www.w3.org/1999/xlink" x="0px" y="0px"
	 viewBox="0 0 402 402" style="enable-background:new 0 0 402 402;" xml:space="preserve">
<style type="text/css">
	.st0{display:none;}
	.st1{display:inline;}
	.st2{fill:none;stroke:#000000;stroke-linecap:round;stroke-linejoin:round;stroke-miterlimit:10;}
	.st3{stroke:#000000;stroke-linecap:round;stroke-linejoin:round;stroke-miterlimit:10;}
	.st4{display:inline;fill:none;}
	.st5{font-family:'MyriadPro-Regular';}
	.st6{font-size:46.9074px;}
	.st7{display:inline;stroke:#000000;stroke-linecap:round;stroke-linejoin:round;stroke-miterlimit:10;}
	.st8{fill:none;}
	.st9{fill:none;stroke:#EE4036;stroke-width:2;stroke-miterlimit:10;}
</style>
<g class="st0">
	<path class="st1" d="M222.9,150.6h-41.9c-22.6,0-22.9-22.7-22.9-22.9v-20.9c0-22.6,22.7-22.9,22.9-22.9h41.9
		c22.6,0,22.9,17.5,22.9,17.6v26.2C245.8,150.4,223.2,150.6,222.9,150.6z M181.1,87.9c-0.8,0-19,0.3-19,19v20.9c0,0.8,0.3,19,19,19
		h41.9c0.8,0,19-0.3,19-19v-26.2c0-0.6-0.3-13.7-19-13.7L181.1,87.9L181.1,87.9z"/>
	<path class="st1" d="M229.9,267.7h-55.8c-5.5,0-15.9-3.3-15.9-15.9v-76.7c0-5.5,3.3-15.9,15.9-15.9h55.8c5.5,0,15.9,3.3,15.9,15.9
		v76.7C245.8,257.3,242.5,267.7,229.9,267.7z M174.1,163.1c-11.9,0-12,11.5-12,12v76.7c0,11.9,11.5,12,12,12h55.8
		c11.9,0,12-11.5,12-12v-76.7c0-11.9-11.5-12-12-12H174.1z"/>
	<path class="st1" d="M133.7,260.7c-5.5,0-15.9-3.3-15.9-15.9v-69.8c0-12.6,10.4-15.9,15.9-15.9c12.6,0,15.9,10.4,15.9,15.9v69.8
		C149.6,257.4,139.2,260.7,133.7,260.7z M133.7,163.1c-1.2,0-12,0.4-12,12v69.8c0,11.8,11.4,12,12,12c1.2,0,12-0.4,12-12v-69.8
		C145.7,173.8,145.3,163.1,133.7,163.1z"/>
	<path class="st1" d="M270.3,260.7c-5.5,0-15.9-3.3-15.9-15.9v-69.8c0-12.6,10.4-15.9,15.9-15.9c12.6,0,15.9,10.4,15.9,15.9v69.8
		C286.2,257.4,275.8,260.7,270.3,260.7z M270.3,163.1c-1.2,0-12,0.4-12,12v69.8c0,11.6,10.7,12,12,12c1.3,0,12-0.4,12-12v-69.8
		C282.2,173.8,281.8,163.1,270.3,163.1z"/>
	<path class="st1" d="M202,86.9c-0.5,0-1-0.4-1-1V59.2c0-0.5,0.4-1,1-1c0.5,0,1,0.4,1,1v26.7C203,86.4,202.5,86.9,202,86.9z"/>
	<path class="st1" d="M202,60.2c-3.8,0-6.9-3.1-6.9-6.9c0-3.8,3.1-6.9,6.9-6.9c3.8,0,6.9,3.1,6.9,6.9
		C208.9,57.1,205.8,60.2,202,60.2z M202,48.4c-2.7,0-4.9,2.2-4.9,4.9s2.2,4.9,4.9,4.9c2.7,0,4.9-2.2,4.9-4.9S204.7,48.4,202,48.4z"
		/>
	<path class="st1" d="M229.9,283.2c-0.5,0-1-0.4-1-1v-16.5c0-0.5,0.4-1,1-1c0.5,0,1,0.4,1,1v16.5
		C230.9,282.7,230.4,283.2,229.9,283.2z"/>
	<path class="st1" d="M253,354c-12,0-21.4-16.2-21.4-36.9s9.4-36.9,21.4-36.9c12,0,21.4,16.2,21.4,36.9S265,354,253,354z M253,284.2
		c-9.5,0-17.5,15.1-17.5,33s8,33,17.5,33c9.5,0,17.5-15.1,17.5-33S262.5,284.2,253,284.2z"/>
	<ellipse class="st1" cx="253" cy="317.1" rx="5.8" ry="10.4"/>
	<path class="st1" d="M169.8,354c-12,0-21.4-16.2-21.4-36.9s9.4-36.9,21.4-36.9s21.4,16.2,21.4,36.9S181.8,354,169.8,354z
		 M169.8,284.2c-9.5,0-17.5,15.1-17.5,33s8,33,17.5,33s17.5-15.1,17.5-33S179.3,284.2,169.8,284.2z"/>
	<ellipse class="st1" cx="169.8" cy="317.1" rx="5.8" ry="10.4"/>
	<path class="st1" d="M169.9,313c-0.5,0-1-0.4-1-1v-46.2c0-0.5,0.4-1,1-1c0.5,0,1,0.4,1,1V312C170.9,312.5,170.4,313,169.9,313z"/>
	<g class="st1">
		<path d="M169.8,354h-19.5c-12,0-21.4-16.2-21.4-36.9s9.4-36.9,21.4-36.9h19.5c1.1,0,2,0.9,2,2c0,1.1-0.9,2-2,2
			c-9.5,0-17.5,15.1-17.5,33s8,33,17.5,33c1.1,0,2,0.9,2,2S170.9,354,169.8,354z M150.3,284.2c-9.5,0-17.5,15.1-17.5,33
			s8,33,17.5,33h9.7c-7-6-11.7-18.4-11.7-33c0-14.6,4.7-27,11.7-33H150.3z"/>
		<path d="M169.8,354L169.8,354c-1.1,0-2-0.9-2-2s0.9-2,2-2s2,0.9,2,2S170.9,354,169.8,354z"/>
	</g>
	<g class="st1">
		<path d="M253,354h-19.5c-12,0-21.4-16.2-21.4-36.9s9.4-36.9,21.4-36.9H253c1.1,0,2,0.9,2,2c0,1.1-0.9,2-2,2
			c-9.5,0-17.5,15.1-17.5,33s8,33,17.5,33c1.1,0,2,0.9,2,2S254.1,354,253,354z M233.5,284.2c-9.5,0-17.5,15.1-17.5,33s8,33,17.5,33
			h9.7c-7-6-11.7-18.4-11.7-33c0-14.6,4.7-27,11.7-33H233.5z"/>
		<path d="M253,354L253,354c-1.1,0-2-0.9-2-2s0.9-2,2-2s2,0.9,2,2S254.1,354,253,354z"/>
	</g>
</g>
<g class="st0">
	<path class="st1" d="M114.9,313.3c0,1.7-0.9,3.1-1.9,3.1l0,0c-1.1,0-1.9-1.4-1.9-3.1V91.4c0-1.7,0.9-3.1,1.9-3.1l0,0
		c1.1,0,1.9,1.4,1.9,3.1V313.3z"/>
	<path class="st1" d="M134.2,95.8c-1.9,0.3-3.8,0.7-5.7,1.2c-0.7-2-1.4-3.9-2.1-5.9c-0.7,2.3-1.4,4.7-2.1,7
		c-1.9,0.6-3.8,1.2-5.7,1.9c1.5,0.7,3,1.4,4.5,2.2c-0.6,2.2-1.3,4.3-1.9,6.5c1.7-1.7,3.4-3.3,5.2-4.8c1.7,0.6,3.4,1.3,5.1,2
		c-0.6-1.8-1.3-3.7-1.9-5.5C131.3,98.9,132.8,97.3,134.2,95.8z"/>
	<path class="st1" d="M195.6,101.9c-1.9-0.5-3.8-0.9-5.6-1.3c-0.7-2.3-1.4-4.6-2.1-6.9c-0.7,2-1.4,4-2,6c-1.9-0.4-3.8-0.8-5.7-1.2
		c1.5,1.5,3,3.1,4.5,4.7c-0.6,1.8-1.3,3.7-1.9,5.5c1.7-0.7,3.4-1.4,5.1-2.1c1.7,1.5,3.4,2.9,5.2,4.4c-0.6-2.1-1.3-4.2-1.9-6.4
		C192.6,103.7,194.1,102.8,195.6,101.9z"/>
	<path class="st1" d="M134,118.1c-1.9,0.3-3.8,0.7-5.7,1.2c-0.7-2-1.4-3.9-2.1-5.9c-0.7,2.3-1.4,4.7-2.1,7c-1.9,0.6-3.8,1.2-5.7,1.9
		c1.5,0.7,3,1.4,4.5,2.1c-0.6,2.2-1.3,4.4-1.9,6.5c1.7-1.7,3.4-3.3,5.1-4.8c1.7,0.6,3.4,1.3,5.1,2c-0.6-1.8-1.3-3.7-1.9-5.5
		C131,121.1,132.5,119.6,134,118.1z"/>
	<path class="st1" d="M195.9,124.2c-1.9-0.5-3.8-0.9-5.6-1.3c-0.7-2.3-1.4-4.6-2.1-6.9c-0.7,2-1.4,4-2.1,6c-1.9-0.4-3.8-0.8-5.7-1.2
		c1.5,1.5,3,3.1,4.5,4.7c-0.6,1.8-1.3,3.7-1.9,5.5c1.7-0.7,3.4-1.4,5.1-2.1c1.7,1.5,3.4,2.9,5.2,4.4c-0.6-2.1-1.3-4.2-1.9-6.4
		C192.9,125.9,194.4,125.1,195.9,124.2z"/>
	<path class="st1" d="M256.7,151.4c-18.1,0-36.3-4.5-54-8.9l-2-0.5c-0.9-0.2-1.5-1-1.5-1.9v-22.2c0-0.6,0.3-1.2,0.8-1.5
		c0.5-0.4,1.1-0.5,1.7-0.4l2,0.5c17.4,4.3,35.4,8.8,53,8.8c13.1,0,24.8-2.4,35.8-7.4c0.6-0.3,1.3-0.2,1.9,0.1c0.6,0.4,0.9,1,0.9,1.6
		v22.2c0,0.8-0.4,1.5-1.1,1.8C282.6,148.8,270.3,151.4,256.7,151.4z M203.2,138.6l0.5,0.1c17.4,4.3,35.4,8.8,53,8.8
		c12.6,0,24-2.3,34.7-6.9v-18c-10.7,4.4-22.1,6.6-34.7,6.6c-17.9,0-36-4.4-53.5-8.8L203.2,138.6L203.2,138.6z"/>
	<path class="st1" d="M256.7,216c-18.1,0-36.3-4.5-54-8.9c-17.4-4.3-35.4-8.8-53-8.8c-13.1,0-24.8,2.4-35.8,7.4
		c-0.6,0.3-1.3,0.2-1.9-0.1c-0.6-0.4-0.9-1-0.9-1.6v-43.1c0-0.8,0.4-1.5,1.1-1.8c11.5-5.2,23.8-7.8,37.4-7.8c18.1,0,36.3,4.5,54,8.9
		c17.4,4.3,35.4,8.8,53,8.8c13.1,0,24.8-2.4,35.8-7.4c0.6-0.3,1.3-0.2,1.9,0.1c0.6,0.4,0.9,1,0.9,1.6v43.1c0,0.8-0.4,1.5-1.1,1.8
		C282.6,213.5,270.3,216,256.7,216z M149.7,194.5c18.1,0,36.3,4.5,54,8.9c17.4,4.3,35.4,8.8,53,8.8c12.6,0,24-2.3,34.7-6.9v-38.9
		c-10.7,4.4-22.1,6.6-34.7,6.6c-18.1,0-36.3-4.5-54-8.9c-17.4-4.3-35.4-8.8-53-8.8c-12.6,0-24,2.3-34.7,6.9v38.9
		C125.7,196.6,137.1,194.5,149.7,194.5z"/>
	<path class="st1" d="M201.2,142.1c-0.2,0-0.3,0-0.5-0.1c-15.7-3.9-33.5-8.3-51.1-8.3c-13.1,0-24.8,2.4-35.8,7.4
		c-0.6,0.3-1.3,0.2-1.9-0.1c-0.6-0.4-0.9-1-0.9-1.6V91.7c0-0.8,0.4-1.5,1.1-1.8c11.5-5.2,23.8-7.8,37.4-7.8c16.7,0,32.8,3.6,52,8.4
		c0.9,0.2,1.5,1,1.5,1.9v47.7c0,0.6-0.3,1.2-0.8,1.5C202.1,141.9,201.7,142.1,201.2,142.1z M149.7,129.8c16,0,31.4,3.3,49.6,7.8V94
		c-18.3-4.5-33.7-7.9-49.6-7.9c-12.6,0-24,2.3-34.7,6.9v43.4C125.7,132,137.1,129.8,149.7,129.8z"/>
	<path class="st1" d="M256.7,216c-18.1,0-36.3-4.5-54-8.9c-17.4-4.3-35.4-8.8-53-8.8c-13.1,0-24.8,2.4-35.8,7.4
		c-0.6,0.3-1.3,0.2-1.9-0.1c-0.6-0.4-0.9-1-0.9-1.6V91.7c0-0.8,0.4-1.5,1.1-1.8c11.5-5.2,23.8-7.8,37.4-7.8c18.1,0,36.3,4.5,54,8.9
		c17.4,4.3,35.4,8.8,53,8.8c13.1,0,24.8-2.4,35.8-7.4c0.6-0.3,1.3-0.2,1.9,0.1c0.6,0.4,0.9,1,0.9,1.6v112.3c0,0.8-0.4,1.5-1.1,1.8
		C282.6,213.5,270.3,216,256.7,216z M149.7,194.5c18.1,0,36.3,4.5,54,8.9c17.4,4.3,35.4,8.8,53,8.8c12.6,0,24-2.3,34.7-6.9V97.1
		c-10.7,4.4-22.1,6.6-34.7,6.6c-18.1,0-36.3-4.5-54-8.9c-17.4-4.3-35.4-8.8-53-8.8c-12.6,0-24,2.3-34.7,6.9v108.1
		C125.7,196.6,137.1,194.5,149.7,194.5z"/>
	<path class="st1" d="M165.7,95.5c-1.9-0.2-3.8-0.4-5.6-0.6c-0.7-2.2-1.4-4.4-2.1-6.6c-0.7,2.1-1.4,4.2-2.1,6.3
		c-1.9-0.1-3.8-0.2-5.7-0.2c1.5,1.2,3,2.5,4.5,3.8c-0.6,1.9-1.3,3.9-1.9,5.8c1.7-1,3.4-2,5.2-3c1.7,1.2,3.4,2.4,5.2,3.7
		c-0.6-2-1.3-4.1-1.9-6.1C162.7,97.6,164.2,96.6,165.7,95.5z"/>
	<path class="st1" d="M166,117.8c-1.9-0.2-3.8-0.4-5.7-0.6c-0.7-2.2-1.4-4.4-2.1-6.6c-0.7,2.1-1.4,4.2-2.1,6.3
		c-1.9-0.1-3.8-0.2-5.7-0.2c1.5,1.3,3,2.5,4.5,3.8c-0.6,1.9-1.3,3.9-1.9,5.8c1.7-1,3.4-2,5.2-2.9c1.7,1.2,3.4,2.4,5.1,3.7
		c-0.6-2-1.3-4.1-1.9-6.1C163,119.9,164.5,118.8,166,117.8z"/>
	<g class="st1">
		<path d="M256.7,129.2c-18.1,0-36.3-4.5-54-8.9l-2-0.5c-0.9-0.2-1.5-1-1.5-1.9V92.4c0-0.6,0.3-1.2,0.8-1.5c0.5-0.4,1.1-0.5,1.7-0.4
			l2,0.5c17.4,4.3,35.4,8.8,53,8.8c13.1,0,24.8-2.4,35.8-7.4c0.6-0.3,1.3-0.2,1.9,0.1c0.6,0.4,0.9,1,0.9,1.6v25.5
			c0,0.8-0.4,1.5-1.1,1.8C282.6,126.6,270.3,129.2,256.7,129.2z M203.2,116.4l0.5,0.1c17.4,4.3,35.4,8.8,53,8.8
			c12.6,0,24-2.3,34.7-6.9V97.1c-10.7,4.4-22.1,6.6-34.7,6.6c-17.9,0-36-4.4-53.5-8.8L203.2,116.4L203.2,116.4z"/>
	</g>
	<path class="st1" d="M256.7,216c-18.1,0-36.3-4.5-54-8.9c-17.4-4.3-35.4-8.8-53-8.8c-13.1,0-24.8,2.4-35.8,7.4
		c-0.6,0.3-1.3,0.2-1.9-0.1c-0.6-0.4-0.9-1-0.9-1.6v-20.9c0-0.8,0.4-1.5,1.1-1.8c11.5-5.2,23.8-7.8,37.4-7.8c18.1,0,36.3,4.5,54,8.9
		c17.4,4.3,35.4,8.8,53,8.8c13.1,0,24.8-2.4,35.8-7.4c0.6-0.3,1.3-0.2,1.9,0.1c0.6,0.4,0.9,1,0.9,1.6v20.9c0,0.8-0.4,1.5-1.1,1.8
		C282.6,213.5,270.3,216,256.7,216z M149.7,194.5c18.1,0,36.3,4.5,54,8.9c17.4,4.3,35.4,8.8,53,8.8c12.6,0,24-2.3,34.7-6.9v-16.7
		c-10.7,4.4-22.1,6.6-34.7,6.6c-18.1,0-36.3-4.5-54-8.9c-17.4-4.3-35.4-8.8-53-8.8c-12.6,0-24,2.3-34.7,6.9v16.7
		C125.7,196.6,137.1,194.5,149.7,194.5z"/>
</g>
<g class="st0">
	<g class="st1">
		<path d="M236.2,263.7h-68.3c-1.1,0-2-0.9-2-2V131.9c0-34.9,21-70.3,36.1-70.3s36.1,35.4,36.1,70.3v129.8
			C238.1,262.8,237.2,263.7,236.2,263.7z M169.8,259.8h64.4V131.9c0-33.6-20.4-66.4-32.2-66.4c-11.8,0-32.2,32.8-32.2,66.4
			L169.8,259.8L169.8,259.8z"/>
	</g>
	<g class="st1">
		<path d="M236.2,332h-20.5c-1.1,0-2-0.9-2-2v-13.7c0-1.1,0.9-2,2-2h13.7c0.7,0,1.4,0.4,1.7,1.1l6.8,13.7c0.3,0.6,0.3,1.3-0.1,1.9
			C237.5,331.6,236.8,332,236.2,332z M217.6,328.1H233l-4.9-9.7h-10.5V328.1z"/>
	</g>
	<g class="st1">
		<path d="M236.2,304.7c-0.5,0-0.9-0.2-1.3-0.5c-0.4-0.4-0.7-0.9-0.7-1.5V289c0-1,0.7-1.8,1.7-1.9l88.8-13.7
			c0.6-0.1,1.1,0.1,1.6,0.4c0.4,0.4,0.7,0.9,0.7,1.5V289c0,1-0.7,1.8-1.7,1.9l-88.8,13.7C236.4,304.6,236.3,304.7,236.2,304.7z
			 M238.1,290.7v9.7l84.9-13.1v-9.7L238.1,290.7z"/>
	</g>
	<g class="st1">
		<path d="M167.8,291c-0.1,0-0.2,0-0.3,0l-88.8-13.7c-1-0.1-1.7-1-1.7-1.9v-27.3c0-0.6,0.2-1.1,0.6-1.5l68-61.2l20.3-54.2
			c0.3-0.9,1.2-1.4,2.2-1.2c0.9,0.2,1.6,1,1.6,1.9v127.8h4.9c0.8,0,1.5,0.5,1.8,1.2c0.3,0.7,0.1,1.6-0.4,2.1
			c-0.1,0.1-6.3,6.5-6.3,19.1v6.8c0,0.6-0.2,1.1-0.7,1.5C168.7,290.8,168.3,291,167.8,291z M81,273.7l84.9,13.1v-4.5
			c0-8.9,2.7-15.1,4.9-18.5h-2.9c-1.1,0-2-0.9-2-2v-119l-16.7,44.6c-0.1,0.3-0.3,0.6-0.5,0.8L81,248.9V273.7z"/>
	</g>
	<g class="st1">
		<path d="M215.7,338.8h-27.3c-0.6,0-1.2-0.3-1.6-0.8c-0.4-0.5-0.5-1.2-0.3-1.8l6.8-20.5c0.1-0.3,0.3-0.6,0.5-0.8l6.8-6.8
			c0.7-0.7,2-0.7,2.8,0l6.8,6.8c0.2,0.2,0.4,0.5,0.5,0.8l6.8,20.5c0.2,0.6,0.1,1.3-0.3,1.8C216.9,338.5,216.3,338.8,215.7,338.8z
			 M191,334.9H213l-5.8-17.5l-5.1-5.1l-5.1,5.1L191,334.9z"/>
	</g>
	<g class="st1">
		<path d="M188.3,332h-20.5c-0.7,0-1.3-0.4-1.7-0.9c-0.4-0.6-0.4-1.3-0.1-1.9l6.8-13.7c0.3-0.7,1-1.1,1.7-1.1h13.7c1.1,0,2,0.9,2,2
			V330C190.3,331.1,189.4,332,188.3,332z M171,328.1h15.4v-9.7h-10.5L171,328.1z"/>
	</g>
	<g class="st1">
		<path d="M215.7,105.6h-27.3c-4.3,0-7.8-3.5-7.8-7.8c0-4.3,3.5-7.8,7.8-7.8h27.3c4.3,0,7.8,3.5,7.8,7.8
			C223.5,102.1,220,105.6,215.7,105.6z M188.3,91.9c-3.2,0-5.9,2.6-5.9,5.9c0,3.2,2.6,5.9,5.9,5.9h27.3c3.2,0,5.9-2.6,5.9-5.9
			c0-3.2-2.6-5.9-5.9-5.9H188.3z"/>
	</g>
	<g class="st1">
		<path d="M167.8,304.7c-0.1,0-0.2,0-0.3,0L78.7,291c-1-0.1-1.7-1-1.7-1.9v-13.7c0-0.6,0.2-1.1,0.7-1.5c0.4-0.4,1-0.5,1.6-0.4
			l88.8,13.7c1,0.1,1.7,1,1.7,1.9v13.7c0,0.6-0.2,1.1-0.7,1.5C168.7,304.5,168.3,304.7,167.8,304.7z M81,287.4l84.9,13.1v-9.7
			L81,277.7V287.4L81,287.4z"/>
	</g>
	<g class="st1">
		<path d="M195.2,318.3h-27.3c-1.1,0-2-0.9-2-2v-34.2c0-14.3,7.1-21.6,7.4-21.9c0.4-0.4,0.9-0.6,1.4-0.6H202c1.1,0,2,0.9,2,2
			c0,1.1-0.9,2-2,2c-2.7,0-4.9,2.2-4.9,4.9v34.1c0,2.7,2.2,4.9,4.9,4.9c0.8,0,1.5,0.5,1.8,1.2c0.3,0.7,0.1,1.6-0.4,2.1l-6.8,6.8
			C196.2,318.1,195.7,318.3,195.2,318.3z M169.8,314.4h24.6l3.8-3.8c-2.9-1.4-5-4.4-5-7.9v-34.1c0-1.8,0.5-3.5,1.5-4.9h-19.1
			c-1.5,1.8-5.8,8.1-5.8,18.5L169.8,314.4L169.8,314.4z"/>
	</g>
	<g class="st1">
		<path d="M236.2,318.3h-27.3c-0.5,0-1-0.2-1.4-0.6l-6.8-6.8c-0.6-0.6-0.7-1.4-0.4-2.1c0.3-0.7,1-1.2,1.8-1.2c2.7,0,4.9-2.2,4.9-4.9
			v-34.1c0-2.7-2.2-4.9-4.9-4.9c-1.1,0-2-0.9-2-2c0-1.1,0.9-2,2-2h27.3c0.5,0,1,0.2,1.4,0.6c0.3,0.3,7.4,7.6,7.4,21.9v34.2
			C238.1,317.4,237.2,318.3,236.2,318.3z M209.6,314.4h24.6v-32.2c0-10.5-4.3-16.7-5.8-18.5h-19.1c0.9,1.4,1.5,3.1,1.5,4.9v34.1
			c0,3.5-2,6.5-5,7.9L209.6,314.4z"/>
	</g>
	<g class="st1">
		<path d="M236.2,291c-0.5,0-0.9-0.2-1.3-0.5c-0.4-0.4-0.7-0.9-0.7-1.5v-6.8c0-12.7-6.2-19-6.3-19.1c-0.6-0.6-0.7-1.4-0.4-2.1
			c0.3-0.7,1-1.2,1.8-1.2h4.9V131.9c0-0.9,0.7-1.8,1.6-1.9c0.9-0.2,1.8,0.4,2.2,1.2l20.3,54.2l68,61.2c0.4,0.4,0.6,0.9,0.6,1.5v27.3
			c0,1-0.7,1.8-1.7,1.9L236.5,291C236.4,291,236.3,291,236.2,291z M233.2,263.7c2.1,3.5,4.9,9.6,4.9,18.5v4.5l84.9-13.1v-24.8
			L255.3,188c-0.2-0.2-0.4-0.5-0.5-0.8l-16.7-44.6v119c0,1.1-0.9,2-2,2L233.2,263.7L233.2,263.7z"/>
	</g>
</g>
<g class="st0">
	<g class="st1">
		<circle cx="202" cy="200.2" r="115.2"/>
		<path d="M202,317.4c-64.6,0-117.2-52.6-117.2-117.2c0-64.6,52.6-117.2,117.2-117.2c64.6,0,117.2,52.6,117.2,117.2
			S266.6,317.4,202,317.4z M202,87c-62.4,0-113.3,50.8-113.3,113.3c0,62.5,50.8,113.3,113.3,113.3c62.5,0,113.3-50.8,113.3-113.3
			C315.3,137.8,264.4,87,202,87z"/>
	</g>
	<path class="st1" d="M202,289.2c-1.5,0-147.4-0.2-147.4-16.4c0-3.3,4.4-5.7,14.7-7.9c16.4-3.6,47.1-6.4,84.1-7.7
		c15.6-0.5,31.9-0.8,48.7-0.8c1.5,0,147.4,0.2,147.4,16.4C349.4,289,203.5,289.2,202,289.2z M202,260.3c-16.7,0-33,0.3-48.5,0.8
		c-36.8,1.3-67.2,4.1-83.4,7.6c-10.6,2.3-11.6,4.2-11.6,4.2c2.4,4.9,54.9,12.3,143.5,12.3s141.1-7.5,143.5-12.6
		C343.1,267.7,290.6,260.3,202,260.3z"/>
	<g class="st1">
		<path d="M100.7,283.6c0,4.8-3.9,8.6-8.6,8.6c-4.8,0-8.6-3.9-8.6-8.6c0-4.8,3.9-8.6,8.6-8.6C96.8,275,100.7,278.9,100.7,283.6z"/>
		<path d="M92.1,293.2c-5.3,0-9.6-4.3-9.6-9.6c0-5.3,4.3-9.6,9.6-9.6c5.3,0,9.6,4.3,9.6,9.6C101.7,288.9,97.4,293.2,92.1,293.2z
			 M92.1,276c-4.2,0-7.6,3.4-7.6,7.6c0,4.2,3.4,7.6,7.6,7.6c4.2,0,7.6-3.4,7.6-7.6C99.7,279.4,96.3,276,92.1,276z"/>
	</g>
	<g class="st1">
		<circle cx="241.3" cy="287.5" r="12.5"/>
		<path d="M241.3,300.9c-7.4,0-13.5-6-13.5-13.5s6-13.5,13.5-13.5s13.5,6,13.5,13.5S248.7,300.9,241.3,300.9z M241.3,276
			c-6.3,0-11.5,5.2-11.5,11.5c0,6.3,5.2,11.5,11.5,11.5s11.5-5.2,11.5-11.5C252.8,281.1,247.7,276,241.3,276z"/>
	</g>
	<g class="st1">
		<path d="M320.5,283.9c0,4.9-4,8.9-8.9,8.9c-4.9,0-8.9-4-8.9-8.9c0-4.9,4-8.9,8.9-8.9C316.6,275,320.5,279,320.5,283.9z"/>
		<path d="M311.7,294.7c-6,0-10.8-4.9-10.8-10.8c0-6,4.9-10.8,10.8-10.8c6,0,10.8,4.9,10.8,10.8
			C322.5,289.9,317.6,294.7,311.7,294.7z M311.7,277c-3.8,0-6.9,3.1-6.9,6.9s3.1,6.9,6.9,6.9c3.8,0,6.9-3.1,6.9-6.9
			S315.5,277,311.7,277z"/>
	</g>
	<g class="st1">
		<path d="M291.1,273.3c16.3-19.9,26.1-45.3,26.1-73C317.2,136.6,265.6,85,202,85c-63.6,0-115.2,51.6-115.2,115.2
			c0,27.7,9.8,53.1,26.1,73"/>
		<path d="M291.1,275.2c-0.4,0-0.9-0.1-1.2-0.4c-0.8-0.7-1-1.9-0.3-2.8c16.6-20.2,25.7-45.7,25.7-71.8C315.3,137.8,264.4,87,202,87
			c-62.4,0-113.3,50.8-113.3,113.3c0,26.1,9.1,51.6,25.7,71.8c0.7,0.8,0.6,2.1-0.3,2.8c-0.8,0.7-2.1,0.6-2.8-0.3
			c-17.1-20.9-26.5-47.2-26.5-74.3c0-64.6,52.6-117.2,117.2-117.2c64.6,0,117.2,52.6,117.2,117.2c0,27-9.4,53.4-26.6,74.3
			C292.2,275,291.7,275.2,291.1,275.2z"/>
	</g>
	<g class="st1">
		<circle cx="156.1" cy="286.6" r="19"/>
		<path d="M156.1,306.6c-11,0-20-9-20-20c0-11,9-20,20-20c11,0,20,9,20,20C176.1,297.6,167.1,306.6,156.1,306.6z M156.1,268.5
			c-10,0-18.1,8.1-18.1,18.1c0,10,8.1,18.1,18.1,18.1c10,0,18.1-8.1,18.1-18.1C174.1,276.6,166,268.5,156.1,268.5z"/>
	</g>
</g>
<g class="st0">
	<g class="st1">
		<line class="st2" x1="54.4" y1="274.9" x2="352" y2="274.9"/>
		<path class="st3" d="M53.6,274.9c9.1,0,38.9-21.4,44.9-21.4c6.1,0,18-5.4,21-10.7c3-5.4,23.1-10.7,26.1-16.1
			c3-5.4,20.6,5.4,23.7,5.4c3,0,21.3,10.7,24.3,10.7c3,0,22.6-10.7,25.6-10.7c3,0,15.3,5.4,21.4,5.4s20.2,0,23.3,5.4
			s26.8-10.7,32.9,10.7c6.1,21.4,32.1,10.7,35.2,16.1c3,5.4,20,5.4,20,5.4"/>
		<path class="st3" d="M52.8,274.9C71,274.9,85.9,232,98,232c12.1,0,13.5-10.7,19.6-21.5c6.1-10.7,16.1-21.4,22.1-32.2
			c6.1-10.7,19.4,10.7,25.5,10.7c6.1,0,19.7,21.4,25.8,21.4c6.1,0,20.4-21.4,26.4-21.4c6.1,0,12.2,10.7,24.3,10.7s19.2,0,25.3,10.7
			c6.1,10.7,18-21.4,30.1,21.5c12.1,42.9,25.2,21.5,31.2,32.2c6.1,10.7,23.7,10.7,23.7,10.7"/>
		<path class="st3" d="M52,274.9c27.3,0,27.3-64.4,45.4-64.4c18.2,0,9.1-16.1,18.2-32.2c9.1-16.1,9.1-32.2,18.2-48.3
			c9.1-16.1,18.2,16.1,27.3,16.1c9.1,0,18.2,32.2,27.3,32.2c9.1,0,18.2-32.2,27.3-32.2c9.1,0,9.1,16.1,27.3,16.1s18.2,0,27.3,16.1
			c9.1,16.1,9.1-32.2,27.3,32.2c18.2,64.4,18.2,32.2,27.3,48.3c9.1,16.1,27.3,16.1,27.3,16.1"/>
	</g>
	<rect x="143.8" y="20.9" class="st4" width="197.3" height="67.3"/>
	<text transform="matrix(1 0 0 1 143.7646 54.2186)" class="st1 st5 st6">faire qqch</text>
</g>
<g class="st0">
	<g class="st1">
		<path d="M202,330.8c-70.2,0-127.3-58.6-127.3-130.6c0-72,57.1-130.6,127.3-130.6c0.4,0,0.9,0,1.3,0l0.8,0
			c18.1,2.6,33.2,37.3,38.8,88.6c49.9,5.8,83.7,21.2,86.3,39.6l0,0.9c0,0.5,0,1,0,1.5C329.3,272.2,272.2,330.8,202,330.8z M202,73.5
			c-68,0-123.4,56.8-123.4,126.7c0,69.9,55.3,126.7,123.4,126.7c68,0,123.4-56.8,123.4-126.7c0-0.4,0-0.9,0-1.3l0-0.7
			c-2.3-16.2-36.2-30.9-84.4-36.2c-0.9-0.1-1.6-0.8-1.7-1.7c-5.2-49.5-19.4-84.3-35.4-86.7l-0.6,0C202.8,73.5,202.4,73.5,202,73.5z"
			/>
	</g>
	<g class="st1">
		<path d="M163,242.3c-1,0-1.8-0.7-1.9-1.8c-1.4-13.1-2.1-26.6-2.1-40.3c0-3.2,0-6.3,0.1-9.4l0.1-1.8c0.1-3.1,0.2-6.2,0.4-9.3
			c0.2-3.5,0.4-6.7,0.6-9.9c4.7-60,21.5-100.1,41.9-100.1c19.2,0,35.3,35.4,41,90.3c0.1,1.1-0.7,2-1.7,2.1c-1.1,0.1-2-0.7-2.1-1.7
			c-5.3-51.1-20.6-86.8-37.1-86.8c-17.7,0-33.6,40.5-38,96.3c-0.3,3.3-0.5,6.5-0.6,9.7c-0.2,3.3-0.3,6.4-0.4,9.5l-0.1,1.8
			c-0.1,3.1-0.1,6.2-0.1,9.4c0,13.5,0.7,27,2,39.9c0.1,1.1-0.7,2-1.7,2.1C163.1,242.3,163,242.3,163,242.3z"/>
	</g>
	<path class="st7" d="M241,160.3"/>
	<g class="st1">
		<path d="M202,244.6c-13.4,0-26.6-0.7-39.3-2.1c-0.7-0.1-1.4-0.6-1.6-1.3c-0.3-0.7-0.1-1.5,0.4-2l21-21.6c0.8-0.8,2-0.8,2.8,0
			c0.8,0.8,0.8,2,0,2.8L167.2,239c14.2,1.4,29.3,1.9,44,1.6l1.7-0.1c3-0.1,6-0.2,9-0.4c0,0,0.4,0,0.4,0c3-0.2,6.1-0.4,9.1-0.6
			c54.5-4.5,94-20.9,94-39.1c0-17-34.8-32.7-84.5-38.2c-1.1-0.1-1.8-1.1-1.7-2.2c0.1-1.1,1.1-1.8,2.2-1.7c52.6,5.8,88,22.7,88,42
			c0,20.6-40,38.2-97.4,42.9c-3.3,0.3-6.4,0.5-9.6,0.7c0,0-0.4,0-0.4,0c-2.9,0.2-5.9,0.3-9,0.4l-1.7,0.1
			C208.2,244.5,205.1,244.6,202,244.6z"/>
	</g>
	<g class="st1">
		<g>
			<path d="M199.9,220.7c-5.8,0-11.5-0.3-17-0.9c-0.5-0.1-0.8-0.4-0.9-0.9c-0.6-5.7-0.9-11.6-0.9-17.4c0-1.4,0-2.7,0.1-4.1
				c0-0.2,0-0.5,0-0.8c0-1.3,0.1-2.7,0.2-4c0.1-1.5,0.2-2.9,0.3-4.3c1.8-22.4,7.9-45,17.8-45c31.7,0.1,57.4,27,57.4,60
				c0,0.3,0,0.4,0,0.5h0c0,0.3,0,0.5,0,0.8c-0.7,4.8-20.7,13.7-44,15.6c-0.1,0-0.2,0-0.2,0c-1.3,0.1-2.6,0.2-4,0.3
				c-1.2,0.1-2.3,0.1-3.4,0.2l-1.4,0C202.6,220.7,201.2,220.7,199.9,220.7z M183.9,217.9c6.5,0.7,13.4,0.9,19.9,0.8l1.3,0
				c1.1,0,2.2-0.1,3.3-0.1c1.5-0.1,2.8-0.2,4.1-0.3c0.1,0,0.1,0,0.1,0c24.7-2,41.8-11.1,42.2-13.8l0-0.4c0-0.2,0-0.5,0-0.7
				c0-31.9-24.9-57.9-55.5-58c-7.2,0-13.9,18.1-15.8,43.1c-0.1,1.4-0.2,2.8-0.3,4.2c-0.1,1.5-0.1,2.8-0.2,4.1c0,0.3,0,0.5,0,0.7
				c0,1.4-0.1,2.7-0.1,4.1C183.1,207,183.4,212.6,183.9,217.9z"/>
		</g>
	</g>
</g>
<g class="st0">
	<g class="st1">
		<path d="M233.3,96.5c0,0-0.1,0-0.1,0l-62.3-8.1c-0.5-0.1-0.9-0.5-0.9-1V73.9c0-0.3,0.1-0.6,0.3-0.7s0.5-0.3,0.8-0.2l62.3,8.1
			c0.5,0.1,0.9,0.5,0.9,1v13.5c0,0.3-0.1,0.6-0.3,0.7C233.8,96.5,233.5,96.5,233.3,96.5z M172,86.6l60.3,7.9V82.9L172,75V86.6z"/>
	</g>
	<g class="st1">
		<path d="M233.3,126.2c0,0-0.1,0-0.1,0l-62.3-7.6c-0.5-0.1-0.9-0.5-0.9-1v-13.5c0-0.3,0.1-0.5,0.3-0.7c0.2-0.2,0.5-0.3,0.8-0.2
			l62.3,7.6c0.5,0.1,0.9,0.5,0.9,1v13.5c0,0.3-0.1,0.5-0.3,0.7C233.8,126.1,233.5,126.2,233.3,126.2z M172,116.8l60.3,7.3v-11.5
			l-60.3-7.3V116.8z"/>
	</g>
	<g class="st1">
		<path d="M228.6,156.5c0,0-0.1,0-0.1,0l-55.3-7.4c-0.4-0.1-0.7-0.3-0.8-0.7c-1.2-4.4-1.9-9.1-2.2-14c0-0.3,0.1-0.6,0.3-0.8
			c0.2-0.2,0.5-0.3,0.8-0.3l61.1,8.1c0.3,0,0.5,0.2,0.7,0.4c0.2,0.2,0.2,0.5,0.2,0.7c-0.8,4.5-2,9-3.7,13.2
			C229.4,156.2,229,156.5,228.6,156.5z M174.1,147.2l53.9,7.2c1.4-3.6,2.4-7.3,3.1-11.1l-58.9-7.9
			C172.5,139.5,173.1,143.4,174.1,147.2z"/>
	</g>
	<g class="st1">
		<path d="M210.6,183.9c0,0-0.1,0-0.1,0l-18.9-2.4c-0.2,0-0.4-0.1-0.6-0.3c-4.6-5.2-8.2-10.1-11.1-15c-0.2-0.3-0.2-0.7,0-1
			c0.2-0.3,0.6-0.5,0.9-0.4l39.8,5c0.3,0,0.6,0.3,0.8,0.6c0.1,0.3,0.1,0.7-0.1,1c-2.8,4-6.1,8.1-10,12.4
			C211.1,183.8,210.8,183.9,210.6,183.9z M192.2,179.6l18,2.3c3.3-3.6,6.1-7,8.6-10.5l-36.2-4.6C185.1,171,188.3,175.2,192.2,179.6z
			"/>
	</g>
	<g class="st1">
		<path d="M226.4,246.2c-0.1,0-0.1,0-0.1,0l-44.9-6.6c-0.1,0-0.2-0.1-0.3-0.1c-0.3,0-0.5-0.2-0.7-0.5s0-0.7,0.2-1
			c2.7-3.8,6-7.8,10.2-12.1c0.2-0.2,0.6-0.3,0.9-0.3l24.2,3.8c0.2,0,0.4,0.1,0.6,0.3c4.7,5.3,8.3,10.2,10.9,15
			c0.2,0.3,0.2,0.7-0.1,1C227.1,246.1,226.7,246.2,226.4,246.2z M183.1,237.9l41.5,6.1c-2.4-4.1-5.5-8.2-9.5-12.7l-23.3-3.6
			C188.3,231.3,185.5,234.7,183.1,237.9z"/>
	</g>
	<g class="st1">
		<path d="M233,277.2c0,0-0.1,0-0.1,0l-62.2-8.3c-0.5-0.1-0.9-0.5-0.8-1c0.2-4.7,1-9.2,2.4-13.5c0.1-0.4,0.6-0.7,1.1-0.7l59.2,8
			c0.4,0.1,0.8,0.4,0.8,0.8c0.4,2.8,0.6,5.4,0.6,8.1v5.6c0,0.3-0.1,0.6-0.3,0.7C233.5,277.1,233.2,277.2,233,277.2z M171.9,267.1
			l60.2,8.1v-4.5c0-2.4-0.2-4.7-0.5-7.1l-57.7-7.7C172.8,259.4,172.1,263.2,171.9,267.1z"/>
	</g>
	<g class="st1">
		<path d="M232.8,308.1c-0.1,0-0.1,0-0.1,0l-62-9.6c-0.5-0.1-0.8-0.5-0.8-1V284c0-0.3,0.1-0.6,0.3-0.7c0.2-0.2,0.5-0.3,0.8-0.2
			l62.3,9.7c0.5,0.1,0.8,0.5,0.8,1l-0.3,13.5c0,0.3-0.1,0.6-0.4,0.7C233.2,308.1,233,308.1,232.8,308.1z M171.7,296.7l60.1,9.3
			l0.2-11.6l-60.3-9.4V296.7z"/>
	</g>
	<g class="st1">
		<path d="M235.2,337.8c0,0-0.1,0-0.1,0l-64.4-8.6c-0.5-0.1-0.8-0.5-0.8-1v-13.5c0-0.3,0.1-0.6,0.3-0.7c0.2-0.2,0.5-0.3,0.8-0.2
			l62.3,8.4c0.5,0.1,0.8,0.5,0.8,1v7.9c0,1.9,0.7,3.7,1.9,5.2c0.3,0.3,0.3,0.7,0.1,1.1C235.8,337.7,235.5,337.8,235.2,337.8z
			 M171.7,327.4l61.5,8.2c-0.7-1.4-1.1-3-1.1-4.6v-7.1l-60.3-8.1V327.4z"/>
	</g>
	<g class="st1">
		<path d="M161.8,341.9c-6,0-10.9-4.9-10.9-10.9v-60.4c0-33.8,21-53.4,41.4-72.4c20.1-18.9,39.1-36.6,39.1-68.4V69.5
			c0-6,4.9-10.9,10.9-10.9c6,0,10.9,4.9,10.9,10.9v60.4c0,41.3-24.4,64.1-46,84.3c-18.5,17.3-34.5,32.2-34.5,56.5V331
			C172.7,337,167.8,341.9,161.8,341.9z M242.2,62.5c-3.8,0-7,3.1-7,7v60.4c0,33.5-19.6,51.8-40.3,71.2
			c-19.8,18.5-40.2,37.6-40.2,69.6V331c0,3.8,3.1,7,7,7c3.9,0,7-3.1,7-7v-60.3c0-26,16.5-41.5,35.7-59.4
			c21-19.7,44.8-41.9,44.8-81.5V69.5C249.2,65.6,246.1,62.5,242.2,62.5z"/>
	</g>
	<g class="st1">
		<g>
			<path d="M189,205.9c-0.5,0-1-0.2-1.3-0.5c-19.1-18.6-36.8-40.6-36.8-75.5V69.5c0-6,4.9-10.9,10.9-10.9c6,0,10.9,4.9,10.9,10.9
				v60.4c0,28.4,15.2,45.4,30.7,60.4c0.4,0.4,0.6,0.9,0.6,1.4c0,0.5-0.2,1-0.6,1.4c-2.8,2.7-5.6,5.3-8.4,8l-4.6,4.3
				C190,205.7,189.5,205.9,189,205.9z M161.8,62.5c-3.9,0-7,3.1-7,7v60.4c0,32.7,16.3,53.7,34.3,71.4l3.2-3c2.3-2.2,4.7-4.4,6.9-6.6
				c-15.6-15.3-30.4-32.8-30.4-61.8V69.5C168.8,65.6,165.6,62.5,161.8,62.5z"/>
		</g>
		<g>
			<path d="M242.2,341.9c-6,0-10.9-4.9-10.9-10.9v-60.4c0-22.3-13.3-36.6-30.7-53c-0.4-0.4-0.6-0.9-0.6-1.4c0-0.5,0.2-1.1,0.6-1.4
				c1.3-1.2,2.5-2.4,3.8-3.6c3-2.8,6.1-5.7,9.2-8.7c0.8-0.7,1.9-0.7,2.7,0c19.4,18.3,36.8,37.3,36.8,68.1V331
				C253.1,337,248.2,341.9,242.2,341.9z M204.8,216.3c17.3,16.4,30.4,31.2,30.4,54.4V331c0,3.8,3.1,7,7,7c3.9,0,7-3.1,7-7v-60.4
				c0-28.6-16-46.7-34.2-64c-2.7,2.5-5.3,5-7.9,7.5C206.4,214.9,205.6,215.6,204.8,216.3z"/>
		</g>
	</g>
</g>
<g class="st0">
	<g class="st1">
		<g>
			<path d="M277.6,236H126c-13.5,0-17.1-11.2-17.1-17.1v-60.7c0-13.5,11.2-17.1,17.1-17.1h5.8c0.7-3.3,3.1-7.6,9.3-7.6h15.2
				c6.2,0,8.7,4.2,9.3,7.6h5.8c3,0,6.6-3.6,10-7c4-4,8.1-8.1,12.7-8.1h30.4c4.6,0,8.7,4.1,12.7,8.1c3.5,3.5,7,7,10,7h30.3
				c8.7,0,17.1,8.5,17.1,17.1v60.7C294.8,232.5,283.6,236,277.6,236z M126,145c-0.5,0-13.2,0.2-13.2,13.2v60.7
				c0,0.5,0.2,13.2,13.2,13.2h151.7c0.5,0,13.2-0.2,13.2-13.2v-60.7c0-6.5-6.7-13.2-13.2-13.2h-30.3c-4.6,0-8.8-4.2-12.8-8.2
				c-3.4-3.4-7-7-10-7h-30.4c-3,0-6.5,3.6-10,7c-4,4-8.2,8.2-12.8,8.2h-7.6c-1.1,0-2-0.9-2-2c0-0.9-0.3-5.6-5.6-5.6h-15.2
				c-5.4,0-5.6,5-5.6,5.6c0,1.1-0.9,2-2,2H126z"/>
		</g>
		<g>
			<line class="st8" x1="133.6" y1="143.1" x2="163.9" y2="143.1"/>
			<path d="M163.9,145h-30.3c-1.1,0-2-0.9-2-2s0.9-2,2-2h30.3c1.1,0,2,0.9,2,2S165,145,163.9,145z"/>
		</g>
		<g>
			<path d="M220.8,144.1H198c-2.6,0-4.8-2.1-4.8-4.8s2.1-4.8,4.8-4.8h22.8c2.6,0,4.8,2.1,4.8,4.8S223.4,144.1,220.8,144.1z
				 M198,136.5c-1.6,0-2.8,1.3-2.8,2.8s1.3,2.8,2.8,2.8h22.8c1.6,0,2.8-1.3,2.8-2.8s-1.3-2.8-2.8-2.8H198z"/>
		</g>
		<g>
			<path d="M201.8,227c-21.2,0-38.4-17.2-38.4-38.4c0-21.2,17.2-38.4,38.4-38.4c21.2,0,38.4,17.2,38.4,38.4
				C240.3,209.8,223,227,201.8,227z M201.8,154.1c-19,0-34.5,15.5-34.5,34.5c0,19,15.5,34.5,34.5,34.5c19,0,34.5-15.5,34.5-34.5
				C236.3,169.5,220.9,154.1,201.8,154.1z"/>
		</g>
		<g>
			<path d="M201.8,216.1c-15.2,0-27.5-12.3-27.5-27.5c0-15.2,12.3-27.5,27.5-27.5c15.2,0,27.5,12.3,27.5,27.5
				C229.4,203.8,217,216.1,201.8,216.1z M201.8,163c-14.1,0-25.6,11.5-25.6,25.6c0,14.1,11.5,25.6,25.6,25.6s25.6-11.5,25.6-25.6
				C227.4,174.5,215.9,163,201.8,163z"/>
		</g>
		<g>
			<path d="M182.9,193.3c-0.5,0-1-0.4-1-1c0-13.1,10.6-23.7,23.7-23.7c0.5,0,1,0.4,1,1c0,0.5-0.4,1-1,1c-12,0-21.8,9.8-21.8,21.8
				C183.9,192.9,183.4,193.3,182.9,193.3z"/>
		</g>
	</g>
	<g class="st1">
		<path d="M84.2,243.5c-5.5,0-15.9-3.3-15.9-15.9v-69.8c0-12.6,10.4-15.9,15.9-15.9c12.6,0,15.9,10.4,15.9,15.9v69.8
			C100.1,240.2,89.7,243.5,84.2,243.5z M84.2,145.8c-1.2,0-12,0.4-12,12v69.8c0,11.6,10.7,12,12,12c1.3,0,12-0.4,12-12v-69.8
			C96.2,156.6,95.8,145.8,84.2,145.8z"/>
	</g>
	<g class="st1">
		<path d="M319.8,243.1c-5.5,0-15.9-3.3-15.9-15.9v-69.8c0-12.6,10.4-15.9,15.9-15.9c12.6,0,15.9,10.4,15.9,15.9v69.8
			C335.7,239.8,325.3,243.1,319.8,243.1z M319.8,145.4c-1.2,0-12,0.4-12,12v69.8c0,11.8,11.4,12,12,12c1.2,0,12-0.4,12-12v-69.7
			C331.8,156.2,331.4,145.4,319.8,145.4z"/>
	</g>
	<path class="st1" d="M201.8,118.4c-0.5,0-1-0.4-1-1V90.7c0-0.5,0.4-1,1-1c0.5,0,1,0.4,1,1v26.7C202.8,118,202.4,118.4,201.8,118.4z
		"/>
	<path class="st1" d="M201.8,91.7c-3.8,0-6.9-3.1-6.9-6.9c0-3.8,3.1-6.9,6.9-6.9c3.8,0,6.9,3.1,6.9,6.9
		C208.7,88.6,205.6,91.7,201.8,91.7z M201.8,79.9c-2.7,0-4.9,2.2-4.9,4.9c0,2.7,2.2,4.9,4.9,4.9c2.7,0,4.9-2.2,4.9-4.9
		C206.7,82.1,204.5,79.9,201.8,79.9z"/>
	<g class="st1">
		<path d="M253.1,322.5c-12,0-21.4-16.2-21.4-36.9c0-20.7,9.4-36.9,21.4-36.9c12,0,21.4,16.2,21.4,36.9
			C274.5,306.3,265.1,322.5,253.1,322.5z M253.1,252.7c-9.5,0-17.5,15.1-17.5,33c0,17.9,8,33,17.5,33c9.5,0,17.5-15.1,17.5-33
			C270.6,267.8,262.6,252.7,253.1,252.7z"/>
	</g>
	<ellipse class="st1" cx="253.1" cy="285.6" rx="5.8" ry="10.4"/>
	<g class="st1">
		<path d="M169.9,322.5c-12,0-21.4-16.2-21.4-36.9c0-20.7,9.4-36.9,21.4-36.9c12,0,21.4,16.2,21.4,36.9
			C191.3,306.3,181.9,322.5,169.9,322.5z M169.9,252.7c-9.5,0-17.5,15.1-17.5,33c0,17.9,8,33,17.5,33c9.5,0,17.5-15.1,17.5-33
			C187.4,267.8,179.4,252.7,169.9,252.7z"/>
	</g>
	<ellipse class="st1" cx="169.9" cy="285.6" rx="5.8" ry="10.4"/>
	<g class="st1">
		<g>
			<path d="M253.1,322.5h-19.5c-12,0-21.4-16.2-21.4-36.9c0-20.7,9.4-36.9,21.4-36.9h19.5c1.1,0,2,0.9,2,2c0,1.1-0.9,2-2,2
				c-9.5,0-17.5,15.1-17.5,33c0,17.9,8,33,17.5,33c1.1,0,2,0.9,2,2C255,321.7,254.2,322.5,253.1,322.5z M233.6,252.7
				c-9.5,0-17.5,15.1-17.5,33c0,17.9,8,33,17.5,33h9.7c-7-6-11.7-18.4-11.7-33c0-14.6,4.7-27,11.7-33L233.6,252.7L233.6,252.7z"/>
		</g>
		<g>
			<polygon points="253.1,320.6 253.1,320.6 253.1,320.6 			"/>
			<path d="M253.1,322.5L253.1,322.5c-1.1,0-2-0.9-2-2c0-1.1,0.9-2,2-2s2,0.9,2,2C255,321.7,254.2,322.5,253.1,322.5z"/>
		</g>
	</g>
	<g class="st1">
		<g>
			<path d="M169.9,322.5h-19.5c-12,0-21.4-16.2-21.4-36.9c0-20.7,9.4-36.9,21.4-36.9h19.5c1.1,0,2,0.9,2,2c0,1.1-0.9,2-2,2
				c-9.5,0-17.5,15.1-17.5,33c0,17.9,8,33,17.5,33c1.1,0,2,0.9,2,2C171.8,321.7,170.9,322.5,169.9,322.5z M150.4,252.7
				c-9.5,0-17.5,15.1-17.5,33c0,17.9,8,33,17.5,33h9.7c-7-6-11.7-18.4-11.7-33c0-14.6,4.7-27,11.7-33L150.4,252.7L150.4,252.7z"/>
		</g>
		<g>
			<polygon points="169.9,320.6 169.9,320.6 169.9,320.6 			"/>
			<path d="M169.9,322.5L169.9,322.5c-1.1,0-2-0.9-2-2c0-1.1,0.9-2,2-2s2,0.9,2,2C171.8,321.7,171,322.5,169.9,322.5z"/>
		</g>
	</g>
</g>
<g class="st0">
	<g class="st1">
		<path d="M168.2,176c-0.5,0-0.9-0.4-1-0.9c-0.1-0.5,0.3-1,0.9-1.1c0.2,0,15.5-1.8,33.5-8.5c16.5-6.2,38.8-17.9,51-38.7
			c0.3-0.5,0.9-0.6,1.3-0.4c0.5,0.3,0.6,0.9,0.4,1.3c-12.5,21.4-35.2,33.3-52,39.6c-18.2,6.8-33.7,8.6-33.9,8.6
			C168.3,176,168.3,176,168.2,176z"/>
		<path d="M185.3,220.2c-0.5,0-0.9-0.3-1-0.8c-0.1-0.5,0.3-1,0.8-1.1c0.4-0.1,37.1-7.2,50.4-43.7c0.2-0.5,0.7-0.8,1.3-0.6
			c0.5,0.2,0.8,0.7,0.6,1.3c-13.7,37.6-51.5,44.8-51.8,44.9C185.4,220.2,185.3,220.2,185.3,220.2z"/>
		<path d="M202.3,139.5c-54.9,0-56.5-17-56.5-19c0-1.9,1.6-19,56.5-19c54.9,0,56.5,17.1,56.5,19
			C258.8,122.4,257.2,139.5,202.3,139.5z M202.3,105.4c-51.1,0-52.5,15-52.6,15.1c0,0,1.4,15,52.6,15c51.1,0,52.6-14.9,52.6-15.1
			C254.9,120.4,253.4,105.4,202.3,105.4z"/>
		<path d="M202.3,268.9L202.3,268.9c-0.8,0-1.5-0.5-1.8-1.3l-53.3-143.2c-0.3-0.9,0.1-2,1-2.4c0.9-0.4,2-0.1,2.5,0.7
			c2.4,3.9,12.3,12.8,51.6,12.8c39.3,0,49.2-9,51.6-12.8c0.5-0.8,1.6-1.2,2.5-0.7c0.9,0.4,1.3,1.5,1,2.4l-53.3,143.2
			C203.9,268.4,203.1,268.9,202.3,268.9z M153.7,130.7l48.6,130.7L251,130.7c-7.3,4.5-21.4,8.8-48.6,8.8
			C175,139.5,160.9,135.1,153.7,130.7z"/>
	</g>
	<g class="st1">
		<path d="M202.7,94.2c-0.5,0-1-0.4-1-1V66.5c0-0.5,0.4-1,1-1c0.5,0,1,0.4,1,1v26.7C203.7,93.8,203.3,94.2,202.7,94.2z"/>
		<path d="M202.7,67.5c-3.8,0-6.9-3.1-6.9-6.9c0-3.8,3.1-6.9,6.9-6.9c3.8,0,6.9,3.1,6.9,6.9C209.6,64.4,206.5,67.5,202.7,67.5z
			 M202.7,55.7c-2.7,0-4.9,2.2-4.9,4.9s2.2,4.9,4.9,4.9s4.9-2.2,4.9-4.9C207.6,57.9,205.4,55.7,202.7,55.7z"/>
	</g>
	<g class="st1">
		<path d="M126,248c-5.5,0-15.9-3.3-15.9-15.9v-69.8c0-12.6,10.4-15.9,15.9-15.9c12.6,0,15.9,10.4,15.9,15.9V232
			C141.9,244.6,131.5,248,126,248z M126,150.3c-1.2,0-12,0.4-12,12V232c0,11.8,11.4,12,12,12c1.2,0,12-0.4,12-12v-69.8
			C138,161.1,137.6,150.3,126,150.3z"/>
	</g>
	<g class="st1">
		<path d="M278,248c-5.5,0-15.9-3.3-15.9-15.9v-69.8c0-12.6,10.4-15.9,15.9-15.9c12.6,0,15.9,10.4,15.9,15.9V232
			C293.9,244.6,283.5,248,278,248z M278,150.3c-1.2,0-12,0.4-12,12V232c0,11.6,10.7,12,12,12c1.3,0,12-0.4,12-12v-69.8
			C290,161.1,289.6,150.3,278,150.3z"/>
	</g>
	<g class="st1">
		<path d="M253.4,346.7c-12,0-21.4-16.2-21.4-36.9c0-20.7,9.4-36.9,21.4-36.9c12,0,21.4,16.2,21.4,36.9
			C274.8,330.5,265.4,346.7,253.4,346.7z M253.4,276.8c-9.5,0-17.5,15.1-17.5,33c0,17.9,8,33,17.5,33s17.5-15.1,17.5-33
			C270.9,291.9,262.9,276.8,253.4,276.8z"/>
	</g>
	<path class="st1" d="M259.2,309.8c0,5.7-2.6,10.4-5.8,10.4s-5.8-4.6-5.8-10.4c0-5.7,2.6-10.4,5.8-10.4
		C256.6,299.4,259.2,304.1,259.2,309.8z"/>
	<g class="st1">
		<path d="M170.2,346.7c-12,0-21.4-16.2-21.4-36.9c0-20.7,9.4-36.9,21.4-36.9s21.4,16.2,21.4,36.9
			C191.6,330.5,182.2,346.7,170.2,346.7z M170.2,276.8c-9.5,0-17.5,15.1-17.5,33c0,17.9,8,33,17.5,33c9.5,0,17.5-15.1,17.5-33
			C187.7,291.9,179.7,276.8,170.2,276.8z"/>
	</g>
	<path class="st1" d="M176,309.8c0,5.7-2.6,10.4-5.8,10.4c-3.2,0-5.8-4.6-5.8-10.4c0-5.7,2.6-10.4,5.8-10.4
		C173.4,299.4,176,304.1,176,309.8z"/>
	<g class="st1">
		<g>
			<path d="M253.4,346.7h-19.5c-12,0-21.4-16.2-21.4-36.9c0-20.7,9.4-36.9,21.4-36.9h19.5c1.1,0,2,0.9,2,2c0,1.1-0.9,2-2,2
				c-9.5,0-17.5,15.1-17.5,33c0,17.9,8,33,17.5,33c1.1,0,2,0.9,2,2C255.4,345.8,254.5,346.7,253.4,346.7z M233.9,276.8
				c-9.5,0-17.5,15.1-17.5,33c0,17.9,8,33,17.5,33h9.7c-7-6-11.7-18.4-11.7-33c0-14.6,4.7-27,11.7-33L233.9,276.8L233.9,276.8z"/>
		</g>
		<g>
			<polygon points="253.4,344.7 253.4,344.7 253.4,344.7 			"/>
			<path d="M253.4,346.7L253.4,346.7c-1.1,0-2-0.9-2-2c0-1,0.7-1.8,1.6-1.9c1.2-0.2,2.3,0.7,2.3,1.9
				C255.4,345.8,254.5,346.7,253.4,346.7z"/>
		</g>
	</g>
	<g class="st1">
		<g>
			<path d="M170.2,346.7h-19.5c-12,0-21.4-16.2-21.4-36.9c0-20.7,9.4-36.9,21.4-36.9h19.5c1.1,0,2,0.9,2,2c0,1.1-0.9,2-2,2
				c-9.5,0-17.5,15.1-17.5,33c0,17.9,8,33,17.5,33c1.1,0,2,0.9,2,2C172.1,345.8,171.3,346.7,170.2,346.7z M150.7,276.8
				c-9.5,0-17.5,15.1-17.5,33c0,17.9,8,33,17.5,33h9.7c-7-6-11.7-18.4-11.7-33c0-14.6,4.7-27,11.7-33L150.7,276.8L150.7,276.8z"/>
		</g>
		<g>
			<polygon points="170.2,344.7 170.2,344.7 170.2,344.7 			"/>
			<path d="M170.2,346.7L170.2,346.7c-1.1,0-2-0.9-2-2c0-1,0.7-1.8,1.6-1.9c1.2-0.2,2.3,0.7,2.3,1.9
				C172.2,345.8,171.3,346.7,170.2,346.7z"/>
		</g>
	</g>
</g>
<g class="st0">
	<path class="st1" d="M201.3,272.1c-2.2,0-6.3-1-6.3-4.6c0-1.3-0.7-2.1-1.7-3.1c-1.5-1.6-3.4-3.6-3.4-8.3v-87.1
		c0-0.4,0.5-0.8,1.1-0.8h20.7c0.6,0,1.1,0.4,1.1,0.8v87.1c0,4.7-1.9,6.7-3.4,8.3c-1,1-1.7,1.8-1.7,3.1
		C207.6,271.1,203.5,272.1,201.3,272.1z M192.1,169.9v86.2c0,4.2,1.6,5.8,3,7.3c1.1,1.1,2.1,2.2,2.1,4c0,2.9,3.6,3,4.1,3
		c0.4,0,4.1-0.1,4.1-3c0-1.8,1-2.9,2.1-4c1.4-1.5,3-3.1,3-7.3v-86.2H192.1z"/>
	<g class="st1">
		<path d="M211.8,172.2h-18.3c-2.6,0-6.5-1.7-6.5-6.5v-33c-3-3.6-4.6-8.2-4.6-12.8c0-11.2,9.1-20.3,20.3-20.3
			c11.2,0,20.3,9.1,20.3,20.3c0,4.7-1.6,9.2-4.6,12.8v33C218.4,170.5,214.5,172.2,211.8,172.2z M202.7,103.4
			c-9,0-16.4,7.4-16.4,16.4c0,4,1.5,7.8,4.1,10.8c0.3,0.4,0.5,0.8,0.5,1.3v33.7c0,2.4,2,2.6,2.6,2.6h18.3c0.8,0,2.7-0.3,2.7-2.6
			v-33.8c0-0.5,0.2-0.9,0.5-1.3c2.6-3,4.1-6.8,4.1-10.8C219,110.8,211.7,103.4,202.7,103.4z"/>
	</g>
	<g class="st1">
		<path d="M202.2,88.6c-0.5,0-1-0.4-1-1V61c0-0.5,0.4-1,1-1c0.5,0,1,0.4,1,1v26.7C203.2,88.2,202.7,88.6,202.2,88.6z"/>
		<path d="M202.2,61.9c-3.8,0-6.9-3.1-6.9-6.9c0-3.8,3.1-6.9,6.9-6.9c3.8,0,6.9,3.1,6.9,6.9C209,58.8,206,61.9,202.2,61.9z
			 M202.2,50.1c-2.7,0-4.9,2.2-4.9,4.9c0,2.7,2.2,4.9,4.9,4.9c2.7,0,4.9-2.2,4.9-4.9C207.1,52.3,204.9,50.1,202.2,50.1z"/>
	</g>
	<g class="st1">
		<path d="M151.8,260.7c-5.5,0-15.9-3.3-15.9-15.9V175c0-12.6,10.4-15.9,15.9-15.9c12.6,0,15.9,10.4,15.9,15.9v69.8
			C167.7,257.3,157.3,260.7,151.8,260.7z M151.8,163c-1.2,0-12,0.4-12,12v69.8c0,11.8,11.4,12,12,12c1.2,0,12-0.4,12-12V175
			C163.8,173.8,163.4,163,151.8,163z"/>
	</g>
	<g class="st1">
		<path d="M253.1,260.7c-5.5,0-15.9-3.3-15.9-15.9V175c0-12.6,10.4-15.9,15.9-15.9c12.6,0,15.9,10.4,15.9,15.9v69.8
			C269,257.3,258.6,260.7,253.1,260.7z M253.1,163c-1.2,0-12,0.4-12,12v69.8c0,11.8,11.4,12,12,12c1.2,0,12-0.4,12-12V175
			C265.1,173.8,264.7,163,253.1,163z"/>
	</g>
	<g class="st1">
		<path d="M253.3,352.3c-12,0-21.4-16.2-21.4-36.9c0-20.7,9.4-36.9,21.4-36.9c12,0,21.4,16.2,21.4,36.9
			C274.8,336.1,265.4,352.3,253.3,352.3z M253.3,282.4c-9.5,0-17.5,15.1-17.5,33c0,17.9,8,33,17.5,33c9.5,0,17.5-15.1,17.5-33
			C270.9,297.5,262.8,282.4,253.3,282.4z"/>
	</g>
	<ellipse class="st1" cx="253.3" cy="315.4" rx="5.8" ry="10.4"/>
	<g class="st1">
		<path d="M170.1,352.3c-12,0-21.4-16.2-21.4-36.9c0-20.7,9.4-36.9,21.4-36.9c12,0,21.4,16.2,21.4,36.9
			C191.6,336.1,182.2,352.3,170.1,352.3z M170.1,282.4c-9.5,0-17.5,15.1-17.5,33c0,17.9,8,33,17.5,33c9.5,0,17.5-15.1,17.5-33
			C187.7,297.5,179.6,282.4,170.1,282.4z"/>
	</g>
	<ellipse class="st1" cx="170.1" cy="315.4" rx="5.8" ry="10.4"/>
	<g class="st1">
		<g>
			<path d="M253.3,352.3h-19.5c-12,0-21.4-16.2-21.4-36.9c0-20.7,9.4-36.9,21.4-36.9h19.5c1.1,0,2,0.9,2,2c0,1.1-0.9,2-2,2
				c-9.5,0-17.5,15.1-17.5,33c0,17.9,8,33,17.5,33c1.1,0,2,0.9,2,2C255.3,351.4,254.4,352.3,253.3,352.3z M233.9,282.4
				c-9.5,0-17.5,15.1-17.5,33c0,17.9,8,33,17.5,33h9.7c-7-6-11.7-18.4-11.7-33c0-14.6,4.7-27,11.7-33L233.9,282.4L233.9,282.4z"/>
		</g>
		<g>
			<polygon points="253.3,350.3 253.4,350.3 253.4,350.3 			"/>
			<path d="M253.4,352.3L253.4,352.3c-1.1,0-2-0.9-2-2c0-1.1,0.9-2,2-2s2,0.9,2,2C255.3,351.4,254.5,352.3,253.4,352.3z"/>
		</g>
	</g>
	<g class="st1">
		<g>
			<path d="M170.1,352.3h-19.5c-12,0-21.4-16.2-21.4-36.9c0-20.7,9.4-36.9,21.4-36.9h19.5c1.1,0,2,0.9,2,2c0,1.1-0.9,2-2,2
				c-9.5,0-17.5,15.1-17.5,33c0,17.9,8,33,17.5,33c1.1,0,2,0.9,2,2C172.1,351.4,171.2,352.3,170.1,352.3z M150.7,282.4
				c-9.5,0-17.5,15.1-17.5,33c0,17.9,8,33,17.5,33h9.7c-7-6-11.7-18.4-11.7-33c0-14.6,4.7-27,11.7-33L150.7,282.4L150.7,282.4z"/>
		</g>
		<g>
			<polygon points="170.1,350.3 170.2,350.3 170.2,350.3 			"/>
			<path d="M170.2,352.3L170.2,352.3c-1.1,0-2-0.9-2-2c0-1.1,0.9-2,2-2s2,0.9,2,2C172.1,351.4,171.3,352.3,170.2,352.3z"/>
		</g>
	</g>
</g>
<g class="st0">
	<g class="st1">
		<g>
			<path d="M231.6,243.2h-61.5c-0.5,0-1-0.4-1-1c0-0.5,0.4-1,1-1h61.5c0.5,0,1,0.4,1,1C232.6,242.8,232.2,243.2,231.6,243.2z"/>
			<g>
				<path d="M200.8,233.8c-0.5,0-1-0.4-1-1v-29.6c0-0.5,0.4-1,1-1c0.5,0,1,0.4,1,1v29.6C201.8,233.4,201.4,233.8,200.8,233.8z"/>
				<path d="M210.7,214.1c-0.3,0-0.5-0.1-0.7-0.3l-9.2-9.2l-9.2,9.2c-0.4,0.4-1,0.4-1.4,0c-0.4-0.4-0.4-1,0-1.4l9.9-9.9
					c0.2-0.2,0.4-0.3,0.7-0.3l0,0c0.3,0,0.5,0.1,0.7,0.3l9.9,9.9c0.4,0.4,0.4,1,0,1.4C211.2,214,211,214.1,210.7,214.1z"/>
			</g>
		</g>
		<g>
			<path d="M227.3,193.2c-0.5,0-1.1-0.2-1.5-0.7c-0.1-0.1-8.2-9.1-23.9-9.1c-15.8,0-23.9,9-23.9,9.1c-0.7,0.8-1.9,0.9-2.8,0.2
				c-0.8-0.7-0.9-1.9-0.2-2.8c0.4-0.4,9.3-10.4,26.9-10.4c17.6,0,26.5,10,26.9,10.4c0.7,0.8,0.6,2-0.2,2.8
				C228.2,193,227.8,193.2,227.3,193.2z"/>
			<path d="M237.9,180.5c-0.5,0-1.1-0.2-1.5-0.7c-0.1-0.1-11.8-12.6-34.5-12.6c-22.7,0-34.4,12.5-34.5,12.6c-0.7,0.8-2,0.9-2.8,0.2
				c-0.8-0.7-0.9-2-0.2-2.8c0.5-0.6,12.9-14,37.5-14c24.6,0,36.9,13.4,37.4,14c0.7,0.8,0.6,2-0.2,2.8
				C238.8,180.3,238.3,180.5,237.9,180.5z"/>
			<path d="M248.5,167.8c-0.5,0-1.1-0.2-1.4-0.6c-0.1-0.2-15.4-16.2-45.1-16.2c-29.7,0-45,16-45.1,16.2c-0.7,0.8-2,0.9-2.8,0.1
				s-0.9-2-0.1-2.8c0.7-0.7,16.5-17.5,48-17.5c31.5,0,47.4,16.7,48,17.5c0.7,0.8,0.7,2-0.1,2.8C249.4,167.6,248.9,167.8,248.5,167.8
				z"/>
			<path d="M259,155.1c-0.5,0-1.1-0.2-1.4-0.6c-0.2-0.2-19-19.7-55.7-19.7s-55.5,19.5-55.7,19.7c-0.7,0.8-2,0.8-2.8,0.1
				c-0.8-0.7-0.8-2-0.1-2.8c0.8-0.9,20.1-21,58.6-21c38.5,0,57.8,20.1,58.6,21c0.7,0.8,0.7,2-0.1,2.8
				C260,154.9,259.5,155.1,259,155.1z"/>
			<path d="M269.6,142.4c-0.5,0-1-0.2-1.4-0.6c-0.2-0.2-22.6-23.3-66.3-23.3c-43.7,0-66.1,23-66.3,23.3c-0.7,0.8-2,0.8-2.8,0.1
				c-0.8-0.7-0.8-2-0.1-2.8c0.9-1,23.7-24.5,69.1-24.5c45.5,0,68.2,23.5,69.1,24.5c0.7,0.8,0.7,2-0.1,2.8
				C270.6,142.2,270.1,142.4,269.6,142.4z"/>
		</g>
	</g>
	<g class="st1">
		<path d="M112.9,249.7c-5.5,0-15.9-3.3-15.9-15.9V164c0-12.6,10.4-15.9,15.9-15.9c12.6,0,15.9,10.4,15.9,15.9v69.8
			C128.8,246.3,118.4,249.7,112.9,249.7z M112.9,152c-1.2,0-12,0.4-12,12v69.8c0,11.8,11.4,12,12,12c1.2,0,12-0.4,12-12V164
			C124.8,162.8,124.4,152,112.9,152z"/>
	</g>
	<g class="st1">
		<path d="M291.1,249.2c-5.5,0-15.9-3.3-15.9-15.9v-69.8c0-12.6,10.4-15.9,15.9-15.9c12.6,0,15.9,10.4,15.9,15.9v69.8
			C307,245.9,296.6,249.2,291.1,249.2z M291.1,151.5c-1.2,0-12,0.4-12,12v69.8c0,11.8,11.4,12,12,12c1.2,0,12-0.4,12-12v-69.8
			C303.1,162.3,302.7,151.5,291.1,151.5z"/>
	</g>
	<path class="st1" d="M201.8,106.6c-0.5,0-1-0.4-1-1V78.9c0-0.5,0.4-1,1-1c0.5,0,1,0.4,1,1v26.7
		C202.7,106.2,202.3,106.6,201.8,106.6z"/>
	<path class="st1" d="M201.8,79.9c-3.8,0-6.9-3.1-6.9-6.9c0-3.8,3.1-6.9,6.9-6.9c3.8,0,6.9,3.1,6.9,6.9
		C208.6,76.8,205.5,79.9,201.8,79.9z M201.8,68.1c-2.7,0-4.9,2.2-4.9,4.9c0,2.7,2.2,4.9,4.9,4.9c2.7,0,4.9-2.2,4.9-4.9
		C206.7,70.3,204.5,68.1,201.8,68.1z"/>
	<g class="st1">
		<path d="M251.5,334.3c-12,0-21.4-16.2-21.4-36.9c0-20.7,9.4-36.9,21.4-36.9s21.4,16.2,21.4,36.9
			C272.9,318.1,263.5,334.3,251.5,334.3z M251.5,264.5c-9.5,0-17.5,15.1-17.5,33c0,17.9,8,33,17.5,33s17.5-15.1,17.5-33
			C269,279.6,261,264.5,251.5,264.5z"/>
	</g>
	<ellipse class="st1" cx="251.5" cy="297.4" rx="5.8" ry="10.4"/>
	<g class="st1">
		<path d="M168.3,334.3c-12,0-21.4-16.2-21.4-36.9c0-20.7,9.4-36.9,21.4-36.9c12,0,21.4,16.2,21.4,36.9
			C189.7,318.1,180.3,334.3,168.3,334.3z M168.3,264.5c-9.5,0-17.5,15.1-17.5,33c0,17.9,8,33,17.5,33c9.5,0,17.5-15.1,17.5-33
			C185.8,279.6,177.8,264.5,168.3,264.5z"/>
	</g>
	<ellipse class="st1" cx="168.3" cy="297.4" rx="5.8" ry="10.4"/>
	<g class="st1">
		<g>
			<path d="M251.5,334.3H232c-12,0-21.4-16.2-21.4-36.9c0-20.7,9.4-36.9,21.4-36.9h19.5c1.1,0,2,0.9,2,2c0,1.1-0.9,2-2,2
				c-9.5,0-17.5,15.1-17.5,33c0,17.9,8,33,17.5,33c1.1,0,2,0.9,2,2C253.4,333.5,252.6,334.3,251.5,334.3z M232,264.5
				c-9.5,0-17.5,15.1-17.5,33c0,17.9,8,33,17.5,33h9.7c-7-6-11.7-18.4-11.7-33c0-14.6,4.7-27,11.7-33H232z"/>
		</g>
		<g>
			<polygon points="251.5,332.4 251.5,332.4 251.5,332.4 			"/>
			<path d="M251.5,334.3L251.5,334.3c-1.1,0-2-0.9-2-2c0-1,0.7-1.8,1.6-1.9c1.2-0.2,2.3,0.7,2.3,1.9
				C253.5,333.4,252.6,334.3,251.5,334.3z"/>
		</g>
	</g>
	<g class="st1">
		<g>
			<path d="M168.3,334.3h-19.5c-12,0-21.4-16.2-21.4-36.9c0-20.7,9.4-36.9,21.4-36.9h19.5c1.1,0,2,0.9,2,2c0,1.1-0.9,2-2,2
				c-9.5,0-17.5,15.1-17.5,33c0,17.9,8,33,17.5,33c1.1,0,2,0.9,2,2C170.2,333.5,169.4,334.3,168.3,334.3z M148.8,264.5
				c-9.5,0-17.5,15.1-17.5,33c0,17.9,8,33,17.5,33h9.7c-7-6-11.7-18.4-11.7-33c0-14.6,4.7-27,11.7-33H148.8z"/>
		</g>
		<g>
			<polygon points="168.3,332.4 168.3,332.4 168.3,332.4 			"/>
			<path d="M168.3,334.3L168.3,334.3c-1.1,0-2-0.9-2-2c0-1,0.7-1.8,1.6-1.9c1.2-0.2,2.3,0.7,2.3,1.9
				C170.3,333.4,169.4,334.3,168.3,334.3z"/>
		</g>
	</g>
</g>
<g class="st0">
	<path class="st1" d="M231.6,243.2h-61.5c-0.5,0-1-0.4-1-1c0-0.5,0.4-1,1-1h61.5c0.5,0,1,0.4,1,1
		C232.6,242.8,232.2,243.2,231.6,243.2z"/>
	<g class="st1">
		<path d="M200.8,202.3c0.5,0,1,0.4,1,1v29.6c0,0.5-0.4,1-1,1c-0.5,0-1-0.4-1-1v-29.6C199.9,202.7,200.3,202.3,200.8,202.3z"/>
		<path d="M191,222c0.3,0,0.5,0.1,0.7,0.3l9.2,9.2l9.2-9.2c0.4-0.4,1-0.4,1.4,0c0.4,0.4,0.4,1,0,1.4l-9.9,9.9
			c-0.2,0.2-0.4,0.3-0.7,0.3l0,0c-0.3,0-0.5-0.1-0.7-0.3l-9.9-9.9c-0.4-0.4-0.4-1,0-1.4C190.5,222.1,190.7,222,191,222z"/>
	</g>
	<g class="st1">
		<path d="M227.3,193.2c-0.5,0-1.1-0.2-1.5-0.7c-0.1-0.1-8.2-9.1-23.9-9.1c-15.8,0-23.9,9-23.9,9.1c-0.7,0.8-1.9,0.9-2.8,0.2
			c-0.8-0.7-0.9-1.9-0.2-2.8c0.4-0.4,9.3-10.4,26.9-10.4c17.6,0,26.5,10,26.9,10.4c0.7,0.8,0.6,2-0.2,2.8
			C228.2,193,227.8,193.2,227.3,193.2z"/>
		<path d="M237.9,180.5c-0.5,0-1.1-0.2-1.5-0.7c-0.1-0.1-11.8-12.6-34.5-12.6c-22.7,0-34.4,12.5-34.5,12.6c-0.7,0.8-2,0.9-2.8,0.2
			c-0.8-0.7-0.9-2-0.2-2.8c0.5-0.6,12.9-14,37.5-14c24.6,0,36.9,13.4,37.4,14c0.7,0.8,0.6,2-0.2,2.8
			C238.8,180.3,238.3,180.5,237.9,180.5z"/>
		<path d="M248.5,167.8c-0.5,0-1.1-0.2-1.4-0.6c-0.1-0.2-15.4-16.2-45.1-16.2c-29.7,0-45,16-45.1,16.2c-0.7,0.8-2,0.9-2.8,0.1
			s-0.9-2-0.1-2.8c0.7-0.7,16.5-17.5,48-17.5c31.5,0,47.4,16.7,48,17.5c0.7,0.8,0.7,2-0.1,2.8C249.4,167.6,248.9,167.8,248.5,167.8z
			"/>
		<path d="M259,155.1c-0.5,0-1.1-0.2-1.4-0.6c-0.2-0.2-19-19.7-55.7-19.7s-55.5,19.5-55.7,19.7c-0.7,0.8-2,0.8-2.8,0.1
			c-0.8-0.7-0.8-2-0.1-2.8c0.8-0.9,20.1-21,58.6-21c38.5,0,57.8,20.1,58.6,21c0.7,0.8,0.7,2-0.1,2.8
			C260,154.9,259.5,155.1,259,155.1z"/>
		<path d="M269.6,142.4c-0.5,0-1-0.2-1.4-0.6c-0.2-0.2-22.6-23.3-66.3-23.3c-43.7,0-66.1,23-66.3,23.3c-0.7,0.8-2,0.8-2.8,0.1
			c-0.8-0.7-0.8-2-0.1-2.8c0.9-1,23.7-24.5,69.1-24.5c45.5,0,68.2,23.5,69.1,24.5c0.7,0.8,0.7,2-0.1,2.8
			C270.6,142.2,270.1,142.4,269.6,142.4z"/>
	</g>
	<g class="st1">
		<path d="M112.9,249.7c-5.5,0-15.9-3.3-15.9-15.9V164c0-12.6,10.4-15.9,15.9-15.9c12.6,0,15.9,10.4,15.9,15.9v69.8
			C128.8,246.3,118.4,249.7,112.9,249.7z M112.9,152c-1.2,0-12,0.4-12,12v69.8c0,11.8,11.4,12,12,12c1.2,0,12-0.4,12-12V164
			C124.8,162.8,124.4,152,112.9,152z"/>
	</g>
	<g class="st1">
		<path d="M291.1,249.2c-5.5,0-15.9-3.3-15.9-15.9v-69.8c0-12.6,10.4-15.9,15.9-15.9c12.6,0,15.9,10.4,15.9,15.9v69.8
			C307,245.9,296.6,249.2,291.1,249.2z M291.1,151.5c-1.2,0-12,0.4-12,12v69.8c0,11.8,11.4,12,12,12c1.2,0,12-0.4,12-12v-69.8
			C303.1,162.3,302.7,151.5,291.1,151.5z"/>
	</g>
	<path class="st1" d="M201.8,106.6c-0.5,0-1-0.4-1-1V78.9c0-0.5,0.4-1,1-1c0.5,0,1,0.4,1,1v26.7
		C202.7,106.2,202.3,106.6,201.8,106.6z"/>
	<path class="st1" d="M201.8,79.9c-3.8,0-6.9-3.1-6.9-6.9c0-3.8,3.1-6.9,6.9-6.9c3.8,0,6.9,3.1,6.9,6.9
		C208.6,76.8,205.5,79.9,201.8,79.9z M201.8,68.1c-2.7,0-4.9,2.2-4.9,4.9c0,2.7,2.2,4.9,4.9,4.9c2.7,0,4.9-2.2,4.9-4.9
		C206.7,70.3,204.5,68.1,201.8,68.1z"/>
	<g class="st1">
		<path d="M251.5,334.3c-12,0-21.4-16.2-21.4-36.9c0-20.7,9.4-36.9,21.4-36.9s21.4,16.2,21.4,36.9
			C272.9,318.1,263.5,334.3,251.5,334.3z M251.5,264.5c-9.5,0-17.5,15.1-17.5,33c0,17.9,8,33,17.5,33s17.5-15.1,17.5-33
			C269,279.6,261,264.5,251.5,264.5z"/>
	</g>
	<ellipse class="st1" cx="251.5" cy="297.4" rx="5.8" ry="10.4"/>
	<g class="st1">
		<path d="M168.3,334.3c-12,0-21.4-16.2-21.4-36.9c0-20.7,9.4-36.9,21.4-36.9c12,0,21.4,16.2,21.4,36.9
			C189.7,318.1,180.3,334.3,168.3,334.3z M168.3,264.5c-9.5,0-17.5,15.1-17.5,33c0,17.9,8,33,17.5,33c9.5,0,17.5-15.1,17.5-33
			C185.8,279.6,177.8,264.5,168.3,264.5z"/>
	</g>
	<ellipse class="st1" cx="168.3" cy="297.4" rx="5.8" ry="10.4"/>
	<g class="st1">
		<g>
			<path d="M251.5,334.3H232c-12,0-21.4-16.2-21.4-36.9c0-20.7,9.4-36.9,21.4-36.9h19.5c1.1,0,2,0.9,2,2c0,1.1-0.9,2-2,2
				c-9.5,0-17.5,15.1-17.5,33c0,17.9,8,33,17.5,33c1.1,0,2,0.9,2,2C253.4,333.5,252.6,334.3,251.5,334.3z M232,264.5
				c-9.5,0-17.5,15.1-17.5,33c0,17.9,8,33,17.5,33h9.7c-7-6-11.7-18.4-11.7-33c0-14.6,4.7-27,11.7-33H232z"/>
		</g>
		<g>
			<polygon points="251.5,332.4 251.5,332.4 251.5,332.4 			"/>
			<path d="M251.5,334.3L251.5,334.3c-1.1,0-2-0.9-2-2c0-1,0.7-1.8,1.6-1.9c1.2-0.2,2.3,0.7,2.3,1.9
				C253.5,333.4,252.6,334.3,251.5,334.3z"/>
		</g>
	</g>
	<g class="st1">
		<g>
			<path d="M168.3,334.3h-19.5c-12,0-21.4-16.2-21.4-36.9c0-20.7,9.4-36.9,21.4-36.9h19.5c1.1,0,2,0.9,2,2c0,1.1-0.9,2-2,2
				c-9.5,0-17.5,15.1-17.5,33c0,17.9,8,33,17.5,33c1.1,0,2,0.9,2,2C170.2,333.5,169.4,334.3,168.3,334.3z M148.8,264.5
				c-9.5,0-17.5,15.1-17.5,33c0,17.9,8,33,17.5,33h9.7c-7-6-11.7-18.4-11.7-33c0-14.6,4.7-27,11.7-33H148.8z"/>
		</g>
		<g>
			<polygon points="168.3,332.4 168.3,332.4 168.3,332.4 			"/>
			<path d="M168.3,334.3L168.3,334.3c-1.1,0-2-0.9-2-2c0-1,0.7-1.8,1.6-1.9c1.2-0.2,2.3,0.7,2.3,1.9
				C170.3,333.4,169.4,334.3,168.3,334.3z"/>
		</g>
	</g>
</g>
<g class="st0">
	<g class="st1">
		<path d="M202,268.2c-19.8,0-35.4-7.2-35.4-16.3V113.5c0-1.1,0.9-2,2-2s2,0.9,2,2c0,5.9,12.9,12.4,31.5,12.4
			c18.5,0,31.5-6.5,31.5-12.4c0-1.1,0.9-2,2-2s2,0.9,2,2V252C237.4,261.1,221.9,268.2,202,268.2z M170.6,121.1V252
			c0,5.9,12.9,12.4,31.5,12.4c18.5,0,31.5-6.5,31.5-12.4V121.1c-5.8,5.2-17.6,8.7-31.5,8.7C188.2,129.8,176.4,126.3,170.6,121.1z"/>
	</g>
	<g class="st1">
		<path d="M202.5,173.3c-16.8,0-34.2-4.5-34.2-12.1c0-7.5,17.4-12.1,34.2-12.1c16.8,0,34.2,4.5,34.2,12.1
			C236.7,168.8,219.3,173.3,202.5,173.3z M202.5,151.2c-19,0-32.2,5.3-32.2,10.1c0,4.9,13,10.1,32.2,10.1c19.3,0,32.2-5.2,32.2-10.1
			C234.7,156.5,221.5,151.2,202.5,151.2z"/>
	</g>
	<g class="st1">
		<path d="M142.2,256.8c-5.5,0-15.9-3.3-15.9-15.9v-69.8c0-12.6,10.4-15.9,15.9-15.9c12.6,0,15.9,10.4,15.9,15.9v69.8
			C158.1,253.5,147.7,256.8,142.2,256.8z M142.2,159.2c-1.2,0-12,0.4-12,12v69.8c0,11.8,11.4,12,12,12c1.2,0,12-0.4,12-12v-69.8
			C154.2,169.9,153.7,159.2,142.2,159.2z"/>
	</g>
	<g class="st1">
		<path d="M261.8,256.8c-5.5,0-15.9-3.3-15.9-15.9v-69.8c0-12.6,10.4-15.9,15.9-15.9c12.6,0,15.9,10.4,15.9,15.9v69.8
			C277.7,253.5,267.3,256.8,261.8,256.8z M261.8,159.2c-1.2,0-12,0.4-12,12v69.8c0,11.8,11.4,12,12,12c1.2,0,12-0.4,12-12v-69.8
			C273.8,169.9,273.4,159.2,261.8,159.2z"/>
	</g>
	<path class="st1" d="M202.2,86.1c-0.5,0-1-0.4-1-1V58.4c0-0.5,0.4-1,1-1c0.5,0,1,0.4,1,1v26.7C203.1,85.6,202.7,86.1,202.2,86.1z"
		/>
	<path class="st1" d="M202.2,59.4c-3.8,0-6.9-3.1-6.9-6.9c0-3.8,3.1-6.9,6.9-6.9c3.8,0,6.9,3.1,6.9,6.9
		C209,56.3,205.9,59.4,202.2,59.4z M202.2,47.6c-2.7,0-4.9,2.2-4.9,4.9c0,2.7,2.2,4.9,4.9,4.9c2.7,0,4.9-2.2,4.9-4.9
		C207.1,49.8,204.9,47.6,202.2,47.6z"/>
	<g class="st1">
		<path d="M253.3,354.8c-12,0-21.4-16.2-21.4-36.9c0-20.7,9.4-36.9,21.4-36.9c12,0,21.4,16.2,21.4,36.9
			C274.7,338.6,265.3,354.8,253.3,354.8z M253.3,285c-9.5,0-17.5,15.1-17.5,33c0,17.9,8,33,17.5,33c9.5,0,17.5-15.1,17.5-33
			C270.8,300.1,262.8,285,253.3,285z"/>
	</g>
	<path class="st1" d="M259,317.9c0,5.7-2.6,10.4-5.8,10.4c-3.2,0-5.8-4.6-5.8-10.4c0-5.7,2.6-10.4,5.8-10.4
		C256.5,307.6,259,312.2,259,317.9z"/>
	<g class="st1">
		<path d="M170.1,354.8c-12,0-21.4-16.2-21.4-36.9c0-20.7,9.4-36.9,21.4-36.9c12,0,21.4,16.2,21.4,36.9
			C191.5,338.6,182.1,354.8,170.1,354.8z M170.1,285c-9.5,0-17.5,15.1-17.5,33c0,17.9,8,33,17.5,33c9.5,0,17.5-15.1,17.5-33
			C187.6,300.1,179.6,285,170.1,285z"/>
	</g>
	<ellipse class="st1" cx="170.1" cy="317.9" rx="5.8" ry="10.4"/>
	<g class="st1">
		<g>
			<path d="M253.3,354.8h-19.5c-12,0-21.4-16.2-21.4-36.9c0-20.7,9.4-36.9,21.4-36.9h19.5c1.1,0,2,0.9,2,2c0,1.1-0.9,2-2,2
				c-9.5,0-17.5,15.1-17.5,33c0,17.9,8,33,17.5,33c1.1,0,2,0.9,2,2C255.2,354,254.4,354.8,253.3,354.8z M233.8,285
				c-9.5,0-17.5,15.1-17.5,33c0,17.9,8,33,17.5,33h9.7c-7-6-11.7-18.4-11.7-33c0-14.6,4.7-27,11.7-33L233.8,285L233.8,285z"/>
		</g>
		<g>
			<polygon points="253.3,352.9 253.3,352.9 253.3,352.9 			"/>
			<path d="M253.3,354.8L253.3,354.8c-1.1,0-2-0.9-2-2c0-1,0.8-1.9,1.8-1.9c0,0,0.1,0,0.1,0c1.1,0,2,0.9,2,2
				C255.2,354,254.4,354.8,253.3,354.8z"/>
		</g>
	</g>
	<g class="st1">
		<g>
			<path d="M170.1,354.8h-19.5c-12,0-21.4-16.2-21.4-36.9c0-20.7,9.4-36.9,21.4-36.9h19.5c1.1,0,2,0.9,2,2c0,1.1-0.9,2-2,2
				c-9.5,0-17.5,15.1-17.5,33c0,17.9,8,33,17.5,33c1.1,0,2,0.9,2,2C172,354,171.1,354.8,170.1,354.8z M150.6,285
				c-9.5,0-17.5,15.1-17.5,33c0,17.9,8,33,17.5,33h9.7c-7-6-11.7-18.4-11.7-33c0-14.6,4.7-27,11.7-33L150.6,285L150.6,285z"/>
		</g>
		<g>
			<polygon points="170.1,352.9 170.1,352.9 170.1,352.9 			"/>
			<path d="M170.1,354.8L170.1,354.8c-1.1,0-2-0.9-2-2c0-1.1,0.9-2,2-2c1.1,0,2,0.9,2,2C172,354,171.2,354.8,170.1,354.8z"/>
		</g>
	</g>
	<g class="st1">
		<path d="M202,129.8c-19.8,0-35.4-7.2-35.4-16.3c0-6.6,8-12.3,20.9-14.9c1.1-0.2,2.1,0.5,2.3,1.5c0.2,1.1-0.5,2.1-1.5,2.3
			c-10.6,2.1-17.7,6.6-17.7,11c0,5.9,12.9,12.4,31.5,12.4c18.5,0,31.5-6.5,31.5-12.4c0-4.5-7.1-8.9-17.7-11
			c-1.1-0.2-1.7-1.2-1.5-2.3c0.2-1.1,1.3-1.7,2.3-1.5c12.9,2.6,20.9,8.3,20.9,14.9C237.4,122.7,221.9,129.8,202,129.8z"/>
	</g>
	<g class="st1">
		<path d="M202.2,120.1c-14.8,0-15.4-5.8-15.4-6.5v-11.9c0-0.5,0.4-1,1-1c0.5,0,1,0.4,1,1c0,0.2,0.3,6.2,13.3,6.2
			c13,0,13.3-5.9,13.3-6.2c0-0.5,0.4-1,1-1c0.5,0,1,0.4,1,1l0,0l0,0l0,0l0,0l0,0l0,0l0,0l0,0v0c0,0,0,0,0,0v11.9
			c0,0.1,0,1.5-1.4,2.9C213.6,118.9,209,120.1,202.2,120.1z M188.7,113.6c0,0,0.5,4.6,13.5,4.6c12.9,0,13.2-4.5,13.2-4.6v-7.8
			c-1.9,2-5.8,4-13.3,4c-7.6,0-11.4-2-13.3-4V113.6L188.7,113.6z"/>
	</g>
	<g class="st1">
		<path d="M202,109.8c-8.6,0-15.3-3.6-15.3-8.1c0-4.6,6.7-8.1,15.3-8.1c8.6,0,15.3,3.6,15.3,8.1C217.3,106.2,210.6,109.8,202,109.8z
			 M202,95.4c-8,0-13.3,3.2-13.3,6.2c0,3.3,6.1,6.2,13.3,6.2c7.2,0,13.3-2.8,13.3-6.2C215.4,98.6,210,95.4,202,95.4z"/>
	</g>
</g>
<g class="st0">
	<g class="st1">
		<path d="M185.5,153.6c-0.4,0.4-0.9,0.6-1.4,0.6h-5.4l-20.5,10.3l20.5,10.3h47.9l20.5-10.3l-20.5-10.3h-5.4c-0.5,0-0.9-0.2-1.2-0.4
			c-0.5-0.4,2.6-3.5,2.6-3.5h4.5c0.3,0,0.6,0.1,0.9,0.2l24.4,12.2c0.7,0.3,1.1,1,1.1,1.7c0,0.7-0.4,1.4-1.1,1.7L228,178.4
			c-0.3,0.1-0.6,0.2-0.9,0.2h-48.8c-0.3,0-0.6-0.1-0.9-0.2L153,166.2c-0.7-0.3-1.1-1-1.1-1.7c0-0.7,0.4-1.4,1.1-1.7l24.4-12.2
			c0.3-0.1,0.6-0.2,0.9-0.2h4.6"/>
		<path d="M182.8,150.3c0,0,3,3,2.7,3.3"/>
	</g>
	<g class="st1">
		<path d="M251.5,251.9h-97.7c-0.5,0-0.9-0.2-1.3-0.5L124.9,227c-0.6-0.6-0.8-1.5-0.5-2.3l27.7-61.1c0.2-0.5,0.6-0.9,1.1-1
			c0.5-0.2,1.1-0.1,1.5,0.1l24,12h47.9l24-12c0.5-0.2,1-0.3,1.5-0.1c0.5,0.2,0.9,0.6,1.1,1l27.7,61.1c0.4,0.8,0.2,1.7-0.5,2.3
			l-27.7,24.4C252.5,251.7,252,251.9,251.5,251.9z M154.6,248h96.3l26-23l-26.2-57.9L228,178.4c-0.3,0.1-0.6,0.2-0.9,0.2h-48.8
			c-0.3,0-0.6-0.1-0.9-0.2l-22.6-11.3L128.5,225L154.6,248z"/>
	</g>
	<g class="st1">
		<line class="st8" x1="153.8" y1="250" x2="178.3" y2="176.7"/>
		<path d="M153.8,251.9c-0.2,0-0.4,0-0.6-0.1c-1-0.3-1.6-1.5-1.2-2.5l24.5-73.3c0.3-1,1.4-1.6,2.5-1.2c1,0.3,1.6,1.5,1.2,2.5
			l-24.5,73.3C155.4,251.4,154.6,251.9,153.8,251.9z"/>
	</g>
	<g class="st1">
		<line class="st8" x1="227.1" y1="176.7" x2="251.5" y2="250"/>
		<path d="M251.5,251.9c-0.8,0-1.6-0.5-1.9-1.3l-24.4-73.3c-0.3-1,0.2-2.1,1.2-2.5c1-0.3,2.1,0.2,2.5,1.2l24.4,73.3
			c0.3,1-0.2,2.1-1.2,2.5C252,251.9,251.8,251.9,251.5,251.9z"/>
	</g>
	<g class="st1">
		<path d="M185.4,229.2h-5.6l8.8-23.5h-12.8v-4.8h18.4v4.8L185.4,229.2z"/>
		<path d="M196.9,217.7v-16.8H214v4.8h-11.8v5.9c0.8-0.5,2.5-0.9,4-0.9c5.7,0,8.9,3.8,8.9,9.6v1.3c0,5-3.8,8.1-9.1,8.1
			c-6.2,0-9.2-3.3-9.6-8.5v0h5.3v0c0.2,2.1,1.7,3.6,4,3.6c2.7,0,4-1.5,4-3.7v-1.5c0-2.5-1.4-4.1-4-4.1c-1.8,0-3,0.8-3.6,2.2
			L196.9,217.7L196.9,217.7z"/>
		<path d="M219.9,222.9l3.1-3.4h3l-3.5,3.8l4,5.9h-2.9l-2.8-4.1l-0.9,1v3.1h-2.5V216h2.5V222.9z"/>
		<path d="M229.4,229.3c0.2,0.9,0.8,1.4,1.8,1.4c1.2,0,1.9-0.8,1.9-1.9v-1.1c-0.4,0.7-1.4,1.1-2.3,1.1c-2,0-3.9-1.4-3.9-4.2v-1
			c0-2.9,1.9-4.2,3.9-4.2c0.9,0,1.9,0.5,2.3,1.1v-0.8h2.5v8.9c0,2.7-1.6,4.5-4.4,4.5c-2.5,0-4-1.4-4.3-3.6L229.4,229.3L229.4,229.3z
			 M229.4,224.4c0,1.3,0.9,1.9,1.9,1.9c0.9,0,1.9-0.6,1.9-1.9v-0.8c0-1.3-0.9-1.9-1.9-1.9c-0.9,0-1.9,0.6-1.9,1.9V224.4z"/>
	</g>
	<g class="st1">
		<path d="M207.2,164.4h-9c-0.5,0-1-0.4-1-1v-10.9c0-0.5,0.4-1,1-1h9c0.5,0,1,0.4,1,1v10.9C208.2,164,207.7,164.4,207.2,164.4z
			 M199.2,162.5h7.1v-9h-7.1V162.5z"/>
	</g>
	<g class="st1">
		<path d="M202.7,101.2c-0.5,0-1-0.4-1-1V73.5c0-0.5,0.4-1,1-1c0.5,0,1,0.4,1,1v26.7C203.7,100.8,203.2,101.2,202.7,101.2z"/>
		<path d="M202.7,74.5c-3.8,0-6.9-3.1-6.9-6.9c0-3.8,3.1-6.9,6.9-6.9c3.8,0,6.9,3.1,6.9,6.9C209.6,71.4,206.5,74.5,202.7,74.5z
			 M202.7,62.7c-2.7,0-4.9,2.2-4.9,4.9c0,2.7,2.2,4.9,4.9,4.9c2.7,0,4.9-2.2,4.9-4.9C207.6,64.9,205.4,62.7,202.7,62.7z"/>
	</g>
	<g class="st1">
		<path d="M94.6,253.2c-5.5,0-15.9-3.3-15.9-15.9v-69.8c0-12.6,10.4-15.9,15.9-15.9c12.6,0,15.9,10.4,15.9,15.9v69.8
			C110.5,249.9,100.1,253.2,94.6,253.2z M94.6,155.6c-1.2,0-12,0.4-12,12v69.8c0,11.8,11.4,12,12,12c1.2,0,12-0.4,12-12v-69.8
			C106.6,166.3,106.2,155.6,94.6,155.6z"/>
	</g>
	<g class="st1">
		<path d="M309.4,252.8c-5.5,0-15.9-3.3-15.9-15.9v-69.8c0-12.6,10.4-15.9,15.9-15.9c12.6,0,15.9,10.4,15.9,15.9v69.8
			C325.3,249.5,314.9,252.8,309.4,252.8z M309.4,155.1c-1.2,0-12,0.4-12,12v69.8c0,11.8,11.4,12,12,12c1.2,0,12-0.4,12-12v-69.8
			C321.4,165.9,321,155.1,309.4,155.1z"/>
	</g>
	<g class="st1">
		<path d="M253.2,339.7c-12,0-21.4-16.2-21.4-36.9c0-20.7,9.4-36.9,21.4-36.9s21.4,16.2,21.4,36.9
			C274.7,323.5,265.3,339.7,253.2,339.7z M253.2,269.8c-9.5,0-17.5,15.1-17.5,33c0,17.9,8,33,17.5,33c9.5,0,17.5-15.1,17.5-33
			C270.8,284.9,262.7,269.8,253.2,269.8z"/>
	</g>
	<ellipse class="st1" cx="253.2" cy="302.8" rx="5.8" ry="10.4"/>
	<g class="st1">
		<path d="M170,339.7c-12,0-21.4-16.2-21.4-36.9c0-20.7,9.4-36.9,21.4-36.9c12,0,21.4,16.2,21.4,36.9
			C191.5,323.5,182,339.7,170,339.7z M170,269.8c-9.5,0-17.5,15.1-17.5,33c0,17.9,8,33,17.5,33c9.5,0,17.5-15.1,17.5-33
			C187.6,284.9,179.5,269.8,170,269.8z"/>
	</g>
	<ellipse class="st1" cx="170" cy="302.8" rx="5.8" ry="10.4"/>
	<g class="st1">
		<g>
			<path d="M253.2,339.7h-19.5c-12,0-21.4-16.2-21.4-36.9c0-20.7,9.4-36.9,21.4-36.9h19.5c1.1,0,2,0.9,2,2c0,1.1-0.9,2-2,2
				c-9.5,0-17.5,15.1-17.5,33c0,17.9,8,33,17.5,33c1.1,0,2,0.9,2,2C255.2,338.8,254.3,339.7,253.2,339.7z M233.8,269.8
				c-9.5,0-17.5,15.1-17.5,33c0,17.9,8,33,17.5,33h9.7c-7-6-11.7-18.4-11.7-33c0-14.6,4.7-27,11.7-33L233.8,269.8L233.8,269.8z"/>
		</g>
		<g>
			<polygon points="253.2,337.8 253.3,337.8 253.3,337.8 			"/>
			<path d="M253.3,339.7L253.3,339.7c-1.1,0-2-0.9-2-2c0-1,0.7-1.8,1.6-1.9c1.2-0.3,2.3,0.7,2.3,1.9
				C255.2,338.8,254.4,339.7,253.3,339.7z"/>
		</g>
	</g>
	<g class="st1">
		<g>
			<path d="M170,339.7h-19.5c-12,0-21.4-16.2-21.4-36.9c0-20.7,9.4-36.9,21.4-36.9H170c1.1,0,2,0.9,2,2c0,1.1-0.9,2-2,2
				c-9.5,0-17.5,15.1-17.5,33c0,17.9,8,33,17.5,33c1.1,0,2,0.9,2,2C172,338.8,171.1,339.7,170,339.7z M150.6,269.8
				c-9.5,0-17.5,15.1-17.5,33c0,17.9,8,33,17.5,33h9.7c-7-6-11.7-18.4-11.7-33c0-14.6,4.7-27,11.7-33L150.6,269.8L150.6,269.8z"/>
		</g>
		<g>
			<polygon points="170,337.8 170.1,337.8 170.1,337.8 			"/>
			<path d="M170.1,339.7L170.1,339.7c-1.1,0-2-0.9-2-2c0-1,0.7-1.8,1.7-1.9c1.3-0.2,2.3,0.7,2.3,1.9
				C172,338.8,171.2,339.7,170.1,339.7z"/>
		</g>
	</g>
	<g class="st1">
		<path d="M207.2,161.4c-0.2,0-0.4-0.1-0.6-0.2c-0.2-0.2-0.4-0.5-0.4-0.8v-6.6c0-0.4,0.3-0.8,0.7-0.9c7.5-1.9,12.8-8.7,12.8-16.4
			c0-9.4-7.6-17-17-17s-17,7.6-17,17c0,7.7,5.2,14.5,12.8,16.4c0.4,0.1,0.7,0.5,0.7,0.9v6.6c0,0.3-0.1,0.6-0.4,0.8
			c-0.2,0.2-0.5,0.3-0.8,0.2c-12-2.2-20.7-12.7-20.7-24.9c0-14,11.4-25.4,25.4-25.4c14,0,25.4,11.4,25.4,25.4
			c0,12.2-8.7,22.7-20.7,24.9C207.3,161.4,207.3,161.4,207.2,161.4z M208.2,154.5v4.7c10.5-2.5,18-11.9,18-22.8
			c0-12.9-10.5-23.5-23.5-23.5c-12.9,0-23.5,10.5-23.5,23.5c0,10.9,7.5,20.3,18,22.8v-4.7c-8-2.4-13.5-9.8-13.5-18.1
			c0-10.5,8.5-19,19-19s19,8.5,19,19C221.7,144.8,216.2,152.1,208.2,154.5z"/>
	</g>
</g>
<g class="st0">
	<g class="st1">
		<path d="M218,177.6v23.8h3.9v2.6H218v10.5h-2.8V204h-17.3v-2.6l17.3-23.8H218z M215.2,201.4v-19.2l-14.1,19.2H215.2z"/>
		<path d="M230.5,194.5c1.7-2,4.5-3,7.2-3c4.9,0,10.4,2.7,10.4,10.7v2.3c0,7.9-5.5,10.7-10.4,10.7c-4.9,0-10.4-2.7-10.4-10.7V204
			h2.8v0.4c0,4.9,3.2,8,7.6,8c4.4,0,7.6-3.1,7.6-8v-2.3c0-4.9-3.2-8-7.6-8c-2.9,0-5.4,1.4-6.7,3.7h-3.3v-20.3h19v2.7h-16.2
			L230.5,194.5L230.5,194.5z"/>
		<path d="M261.9,177.4c4.5,0,8.2,3.7,8.2,8.2c0,4.5-3.7,8.2-8.2,8.2s-8.2-3.7-8.2-8.2C253.7,181,257.4,177.4,261.9,177.4z
			 M261.9,191.5c3.3,0,5.9-2.6,5.9-5.9c0-3.3-2.6-5.9-5.9-5.9c-3.3,0-5.9,2.6-5.9,5.9C256.1,188.9,258.6,191.5,261.9,191.5z"/>
	</g>
	<path class="st1" d="M286.9,244.3H113.4c-0.8,0-1.5-0.5-1.8-1.2c-0.3-0.7-0.1-1.6,0.4-2.1l122.7-122.7c0.8-0.8,2-0.8,2.8,0
		c0.8,0.8,0.8,2,0,2.8L118.1,240.4h168.8c1.1,0,2,0.9,2,2C288.9,243.5,288,244.3,286.9,244.3z"/>
	<path class="st1" d="M146,243.4c-0.5,0-1-0.4-1-1c0-8.4-3.3-16.4-9.2-22.3c-0.4-0.4-0.4-1,0-1.4s1-0.4,1.4,0
		c6.3,6.3,9.8,14.7,9.8,23.7C146.9,242.9,146.5,243.4,146,243.4z"/>
	<g class="st1">
		<path d="M203.8,110.5c-0.5,0-1-0.4-1-1V82.8c0-0.5,0.4-1,1-1c0.5,0,1,0.4,1,1v26.7C204.7,110,204.3,110.5,203.8,110.5z"/>
		<path d="M203.8,83.8c-3.8,0-6.9-3.1-6.9-6.9c0-3.8,3.1-6.9,6.9-6.9c3.8,0,6.9,3.1,6.9,6.9C210.6,80.7,207.5,83.8,203.8,83.8z
			 M203.8,72c-2.7,0-4.9,2.2-4.9,4.9c0,2.7,2.2,4.9,4.9,4.9c2.7,0,4.9-2.2,4.9-4.9C208.7,74.2,206.5,72,203.8,72z"/>
	</g>
	<g class="st1">
		<path d="M88.2,249.4c-5.5,0-15.9-3.3-15.9-15.9v-69.7c0-12.6,10.4-15.9,15.9-15.9c12.6,0,15.9,10.4,15.9,15.9v69.7
			C104.1,246.1,93.7,249.4,88.2,249.4z M88.2,151.7c-1.2,0-12,0.4-12,12v69.7c0,11.8,11.4,12,12,12c1.2,0,12-0.4,12-12v-69.7
			C100.2,162.5,99.8,151.7,88.2,151.7z"/>
	</g>
	<g class="st1">
		<path d="M315.8,249.4c-5.5,0-15.9-3.3-15.9-15.9v-69.7c0-12.6,10.4-15.9,15.9-15.9c12.6,0,15.9,10.4,15.9,15.9v69.7
			C331.7,246.1,321.3,249.4,315.8,249.4z M315.8,151.7c-1.2,0-12,0.4-12,12v69.7c0,11.8,11.4,12,12,12c1.2,0,12-0.4,12-12v-69.7
			C327.8,162.5,327.4,151.7,315.8,151.7z"/>
	</g>
	<g class="st1">
		<path d="M255.1,330.4c-12,0-21.4-16.2-21.4-36.9c0-20.7,9.4-36.9,21.4-36.9s21.4,16.2,21.4,36.9
			C276.5,314.2,267.1,330.4,255.1,330.4z M255.1,260.6c-9.5,0-17.5,15.1-17.5,33c0,17.9,8,33,17.5,33s17.5-15.1,17.5-33
			C272.6,275.7,264.6,260.6,255.1,260.6z"/>
	</g>
	<ellipse class="st1" cx="255.1" cy="293.5" rx="5.8" ry="10.4"/>
	<g class="st1">
		<path d="M171.9,330.4c-12,0-21.4-16.2-21.4-36.9c0-20.7,9.4-36.9,21.4-36.9c12,0,21.4,16.2,21.4,36.9
			C193.3,314.2,183.9,330.4,171.9,330.4z M171.9,260.6c-9.5,0-17.5,15.1-17.5,33c0,17.9,8,33,17.5,33c9.5,0,17.5-15.1,17.5-33
			C189.4,275.7,181.4,260.6,171.9,260.6z"/>
	</g>
	<ellipse class="st1" cx="171.9" cy="293.5" rx="5.8" ry="10.4"/>
	<g class="st1">
		<g>
			<path d="M255.1,330.4h-19.5c-12,0-21.4-16.2-21.4-36.9c0-20.7,9.4-36.9,21.4-36.9h19.5c1.1,0,2,0.9,2,2c0,1.1-0.9,2-2,2
				c-9.5,0-17.5,15.1-17.5,33c0,17.9,8,33,17.5,33c1.1,0,2,0.9,2,2C257.1,329.6,256.2,330.4,255.1,330.4z M235.6,260.6
				c-9.5,0-17.5,15.1-17.5,33c0,17.9,8,33,17.5,33h9.7c-7-6-11.7-18.4-11.7-33c0-14.6,4.7-27,11.7-33L235.6,260.6L235.6,260.6z"/>
		</g>
		<g>
			<polygon points="255.1,328.5 255.1,328.5 255.1,328.5 			"/>
			<path d="M255.1,330.4L255.1,330.4c-1.1,0-2-0.9-2-2c0-1.1,0.9-2,2-2c1.1,0,2,0.9,2,2C257.1,329.6,256.2,330.4,255.1,330.4z"/>
		</g>
	</g>
	<g class="st1">
		<g>
			<polygon points="171.9,328.5 171.9,328.5 171.9,328.5 			"/>
			<path d="M171.9,330.4L171.9,330.4c-1.1,0-2-0.9-2-2c0-1.1,0.9-2,2-2s2,0.9,2,2C173.9,329.6,173,330.4,171.9,330.4z"/>
		</g>
		<g>
			<path d="M171.9,330.4h-19.5c-12,0-21.4-16.2-21.4-36.9c0-20.7,9.4-36.9,21.4-36.9h19.5c1.1,0,2,0.9,2,2c0,1.1-0.9,2-2,2
				c-9.5,0-17.5,15.1-17.5,33c0,17.9,8,33,17.5,33c1.1,0,2,0.9,2,2C173.8,329.6,173,330.4,171.9,330.4z M152.4,260.6
				c-9.5,0-17.5,15.1-17.5,33c0,17.9,8,33,17.5,33h9.7c-7-6-11.7-18.4-11.7-33c0-14.6,4.7-27,11.7-33L152.4,260.6L152.4,260.6z"/>
		</g>
	</g>
</g>
<g class="st0">
	<path class="st1" d="M290.6,245H117.1c-1.1,0-2-0.9-2-2c0-1.1,0.9-2,2-2h168.8L166.5,121.7c-0.8-0.8-0.8-2,0-2.8
		c0.8-0.8,2-0.8,2.8,0L292,241.6c0.6,0.6,0.7,1.4,0.4,2.1C292.1,244.5,291.4,245,290.6,245z"/>
	<path class="st1" d="M258,244c-0.5,0-1-0.4-1-1c0-8.9,3.5-17.4,9.8-23.7c0.4-0.4,1-0.4,1.4,0c0.4,0.4,0.4,1,0,1.4
		c-6,6-9.2,13.9-9.2,22.3C259,243.6,258.6,244,258,244z"/>
	<g class="st1">
		<path d="M200.2,111.1c-0.5,0-1-0.4-1-1V83.4c0-0.5,0.4-1,1-1c0.5,0,1,0.4,1,1v26.7C201.2,110.7,200.8,111.1,200.2,111.1z"/>
		<path d="M200.2,84.4c-3.8,0-6.9-3.1-6.9-6.9c0-3.8,3.1-6.9,6.9-6.9c3.8,0,6.9,3.1,6.9,6.9C207.1,81.3,204,84.4,200.2,84.4z
			 M200.2,72.6c-2.7,0-4.9,2.2-4.9,4.9c0,2.7,2.2,4.9,4.9,4.9c2.7,0,4.9-2.2,4.9-4.9C205.2,74.8,203,72.6,200.2,72.6z"/>
	</g>
	<g class="st1">
		<path d="M315.8,250c-5.5,0-15.9-3.3-15.9-15.9v-69.8c0-5.5,3.3-15.9,15.9-15.9c5.5,0,15.9,3.3,15.9,15.9v69.8
			C331.7,246.7,321.3,250,315.8,250z M315.8,152.4c-11.9,0-12,11.5-12,12v69.8c0,11.8,11.4,12,12,12c1.2,0,12-0.4,12-12v-69.8
			C327.8,152.5,316.3,152.4,315.8,152.4z"/>
	</g>
	<g class="st1">
		<path d="M88.2,250c-5.5,0-15.9-3.3-15.9-15.9v-69.8c0-5.5,3.3-15.9,15.9-15.9c5.5,0,15.9,3.3,15.9,15.9v69.8
			C104.1,246.7,93.7,250,88.2,250z M88.2,152.4c-11.9,0-12,11.5-12,12v69.8c0,11.6,10.7,12,12,12c1.3,0,12-0.4,12-12v-69.8
			C100.2,152.5,88.7,152.4,88.2,152.4z"/>
	</g>
	<g class="st1">
		<path d="M248.1,329.8c-12,0-21.4-16.2-21.4-36.9c0-20.7,9.4-36.9,21.4-36.9s21.4,16.2,21.4,36.9
			C269.5,313.6,260.1,329.8,248.1,329.8z M248.1,259.9c-9.5,0-17.5,15.1-17.5,33c0,17.9,8,33,17.5,33s17.5-15.1,17.5-33
			C265.6,275,257.6,259.9,248.1,259.9z"/>
	</g>
	<ellipse class="st1" cx="248.1" cy="292.9" rx="5.8" ry="10.4"/>
	<g class="st1">
		<path d="M164.9,329.8c-12,0-21.4-16.2-21.4-36.9c0-20.7,9.4-36.9,21.4-36.9c12,0,21.4,16.2,21.4,36.9
			C186.3,313.6,176.9,329.8,164.9,329.8z M164.9,259.9c-9.5,0-17.5,15.1-17.5,33c0,17.9,8,33,17.5,33c9.5,0,17.5-15.1,17.5-33
			C182.4,275,174.4,259.9,164.9,259.9z"/>
	</g>
	<ellipse class="st1" cx="164.9" cy="292.9" rx="5.8" ry="10.4"/>
	<g class="st1">
		<path d="M154.7,178.4v23.8h3.9v2.6h-3.9v10.5h-2.8v-10.5h-17.3v-2.6l17.3-23.8H154.7z M151.9,202.2v-19.2l-14.1,19.2H151.9z"/>
		<path d="M167.2,195.3c1.7-2,4.5-3,7.2-3c4.9,0,10.4,2.7,10.4,10.7v2.3c0,7.9-5.5,10.7-10.4,10.7c-4.9,0-10.4-2.7-10.4-10.7v-0.4
			h2.8v0.4c0,4.9,3.2,8,7.6,8c4.4,0,7.6-3.1,7.6-8v-2.3c0-4.9-3.2-8-7.6-8c-3,0-5.4,1.4-6.7,3.7h-3.3v-20.3h19v2.7h-16.2
			L167.2,195.3L167.2,195.3z"/>
		<path d="M198.6,178.1c4.5,0,8.2,3.7,8.2,8.2c0,4.5-3.7,8.2-8.2,8.2c-4.5,0-8.2-3.7-8.2-8.2C190.3,181.8,194,178.1,198.6,178.1z
			 M198.6,192.3c3.3,0,5.9-2.6,5.9-5.9c0-3.3-2.6-5.9-5.9-5.9c-3.3,0-5.8,2.6-5.8,5.9C192.7,189.6,195.3,192.3,198.6,192.3z"/>
	</g>
	<g class="st1">
		<g>
			<path d="M248.1,329.8h-19.5c-12,0-21.4-16.2-21.4-36.9c0-20.7,9.4-36.9,21.4-36.9h19.5c1.1,0,2,0.9,2,2c0,1.1-0.9,2-2,2
				c-9.5,0-17.5,15.1-17.5,33c0,17.9,8,33,17.5,33c1.1,0,2,0.9,2,2C250,328.9,249.2,329.8,248.1,329.8z M228.6,259.9
				c-9.5,0-17.5,15.1-17.5,33c0,17.9,8,33,17.5,33h9.7c-7-6-11.7-18.4-11.7-33c0-14.6,4.7-27,11.7-33L228.6,259.9L228.6,259.9z"/>
		</g>
		<g>
			<polygon points="248.1,327.8 248.1,327.8 248.1,327.8 			"/>
			<path d="M248.1,329.8L248.1,329.8c-1.1,0-2-0.9-2-2c0-1.1,0.9-2,2-2c1.1,0,2,0.9,2,2C250.1,328.9,249.2,329.8,248.1,329.8z"/>
		</g>
	</g>
	<g class="st1">
		<g>
			<polygon points="164.9,327.8 164.9,327.8 164.9,327.8 			"/>
			<path d="M164.9,329.8L164.9,329.8c-1.1,0-2-0.9-2-2c0-1.1,0.9-2,2-2s2,0.9,2,2C166.9,328.9,166,329.8,164.9,329.8z"/>
		</g>
		<g>
			<path d="M164.9,329.8h-19.5c-12,0-21.4-16.2-21.4-36.9c0-20.7,9.4-36.9,21.4-36.9h19.5c1.1,0,2,0.9,2,2c0,1.1-0.9,2-2,2
				c-9.5,0-17.5,15.1-17.5,33c0,17.9,8,33,17.5,33c1.1,0,2,0.9,2,2C166.8,328.9,166,329.8,164.9,329.8z M145.4,259.9
				c-9.5,0-17.5,15.1-17.5,33c0,17.9,8,33,17.5,33h9.7c-7-6-11.7-18.4-11.7-33c0-14.6,4.7-27,11.7-33L145.4,259.9L145.4,259.9z"/>
		</g>
	</g>
</g>
<g class="st0">
	<path class="st1" d="M202.9,318.1h-1.8c-16.7,0-30.2-13.6-30.2-30.2v-1.8c0-7.7,2.9-15,8.1-20.6V105.4c0-12.7,10.3-23,23-23
		c12.7,0,23,10.3,23,23v160.1c5.2,5.6,8.1,12.9,8.1,20.6v1.8C233.1,304.5,219.6,318.1,202.9,318.1z M202,86.3
		c-10.5,0-19.1,8.6-19.1,19.1v160.8c0,0.5-0.2,1-0.6,1.4c-4.9,5-7.5,11.5-7.5,18.4v1.8c0,14.5,11.8,26.3,26.3,26.3h1.8
		c14.5,0,26.3-11.8,26.3-26.3v-1.8c0-6.9-2.7-13.5-7.5-18.4c-0.4-0.4-0.6-0.9-0.6-1.4V105.4C221.1,94.9,212.5,86.3,202,86.3z"/>
	<path class="st1" d="M223.1,237.2h-40.5c-1.1,0-2-0.9-2-2s0.9-2,2-2h40.5c1.1,0,2,0.9,2,2S224.2,237.2,223.1,237.2z"/>
	<path class="st1" d="M221.4,256.7h-14.2c-0.5,0-1-0.4-1-1s0.4-1,1-1h14.2c0.5,0,1,0.4,1,1S221.9,256.7,221.4,256.7z"/>
	<path class="st1" d="M221.4,236.2H199c-0.5,0-1-0.4-1-1c0-0.5,0.4-1,1-1h22.4c0.5,0,1,0.4,1,1C222.3,235.8,221.9,236.2,221.4,236.2
		z"/>
	<path class="st1" d="M221.4,215.8h-14.2c-0.5,0-1-0.4-1-1c0-0.5,0.4-1,1-1h14.2c0.5,0,1,0.4,1,1
		C222.3,215.4,221.9,215.8,221.4,215.8z"/>
	<path class="st1" d="M221.4,193.9h-22.7c-0.5,0-1-0.4-1-1c0-0.5,0.4-1,1-1h22.7c0.5,0,1,0.4,1,1
		C222.3,193.5,221.9,193.9,221.4,193.9z"/>
	<path class="st1" d="M221.4,171.2h-14.4c-0.5,0-1-0.4-1-1c0-0.5,0.4-1,1-1h14.4c0.5,0,1,0.4,1,1
		C222.3,170.8,221.9,171.2,221.4,171.2z"/>
	<path class="st1" d="M221.4,148.5h-22.7c-0.5,0-1-0.4-1-1c0-0.5,0.4-1,1-1h22.7c0.5,0,1,0.4,1,1
		C222.3,148.1,221.9,148.5,221.4,148.5z"/>
	<path class="st1" d="M223.1,128.1h-16.7c-0.5,0-1-0.4-1-1s0.4-1,1-1h16.7c0.5,0,1,0.4,1,1S223.6,128.1,223.1,128.1z"/>
	<path class="st1" d="M221.4,106.2h-22.7c-0.5,0-1-0.4-1-1s0.4-1,1-1h22.7c0.5,0,1,0.4,1,1S221.9,106.2,221.4,106.2z"/>
</g>
<g class="st0">
	<g class="st1">
		<path d="M139.1,149.2c-1,0-1.9-0.8-2-1.8c-0.1-1,0.6-1.8,1.6-2c0.5-0.3,4.6-3.9,4.6-28.9s-4.1-28.6-4.6-28.9
			c-0.2,0-0.4-0.1-0.6-0.2c-0.5-0.2-0.8-0.7-1-1.2c-0.1-0.2-0.1-0.4-0.1-0.7c0.1-1,0.9-1.8,2-1.8l0,0c0.1,0,0.1,0,0.2,0l0,0l0,0
			c0,0,0.1,0,0.1,0l154,18.5c0.2,0,7.9,0.2,7.9,14.3c0,14.1-7.8,14.3-8.1,14.3l-153.8,18.5c0,0,0,0,0,0
			C139.3,149.2,139.2,149.2,139.1,149.2z M143.7,88.2c1.9,4.3,3.5,12.6,3.5,28.3s-1.6,24-3.5,28.3l149.2-17.9
			c1.6-0.1,4.4-2.4,4.4-10.4s-2.8-10.3-4.3-10.4L143.7,88.2z"/>
	</g>
	<g class="st1">
		<path d="M237.7,135.9c-0.3,0-0.5-0.1-0.7-0.3c-0.4-0.4-0.4-1,0-1.4c0.1-0.1,5.9-6.1,5.9-17.8s-5.8-17.7-5.9-17.8
			c-0.4-0.4-0.4-1,0-1.4c0.4-0.4,1-0.4,1.4,0c0.3,0.3,6.4,6.6,6.4,19.2s-6.2,18.9-6.4,19.2C238.2,135.8,238,135.9,237.7,135.9z"/>
	</g>
	<g class="st1">
		<path d="M188.4,142.1c-0.3,0-0.5-0.1-0.7-0.3c-0.4-0.4-0.4-1,0-1.4c0.1-0.1,5.9-6.2,5.9-24c0-17.8-5.8-23.9-5.9-24
			c-0.4-0.4-0.4-1,0-1.4c0.4-0.4,1-0.4,1.4,0c0.3,0.3,6.4,6.7,6.4,25.3s-6.2,25.1-6.4,25.3C188.9,142,188.7,142.1,188.4,142.1z"/>
	</g>
	<g class="st1">
		<path d="M139.1,149.2c-0.5,0-1-0.2-1.4-0.6l-30.8-30.8c-0.8-0.8-0.8-2,0-2.8l30.8-30.8c0.8-0.8,2-0.8,2.8,0c0.8,0.8,0.8,2,0,2.8
			l-29.4,29.4l29.4,29.4c0.8,0.8,0.8,2,0,2.8C140.1,149.1,139.6,149.2,139.1,149.2z"/>
	</g>
	<path class="st1" d="M107.7,313.6c0,1.7-1.1,3.1-2.5,3.1l0,0c-1.4,0-2.5-1.4-2.5-3.1V88.8c0-1.7,1.1-3.1,2.5-3.1l0,0
		c1.4,0,2.5,1.4,2.5,3.1V313.6z"/>
</g>
<g class="st0">
	<g class="st1">
		<g>
			<path d="M287.1,228.4H117.2c-6.6,0-11.9-5.4-11.9-11.9v-98.8c0-6.6,5.3-11.9,11.9-11.9h169.9c6.6,0,11.9,5.3,11.9,11.9v98.8
				C299,223.1,293.7,228.4,287.1,228.4z M117.2,109.7c-4.4,0-8,3.6-8,8v98.8c0,4.4,3.6,8,8,8h169.9c4.4,0,8-3.6,8-8v-98.8
				c0-4.4-3.6-8-8-8H117.2z"/>
		</g>
		<path d="M288.2,218.1h-172c-0.5,0-1-0.4-1-1v-99.9c0-0.5,0.4-1,1-1h172c0.5,0,1,0.4,1,1v99.9C289.2,217.6,288.7,218.1,288.2,218.1
			z M117.1,216.1h170.1v-98H117.1L117.1,216.1L117.1,216.1z"/>
	</g>
	<g class="st1">
		<path d="M320.6,286.1H83.4c-6.3,0-10.7-1.5-12-4.1c-0.4-0.8-0.9-2.5,0.6-4.4l34.6-46.2c2.6-3.5,9.2-6.2,15.1-6.2h160.7
			c5.8,0,12.5,2.7,15.1,6.2l34.6,46.2c1.4,1.9,1,3.6,0.6,4.4C330.7,285.7,323.6,286.1,320.6,286.1z M121.6,229.1
			c-4.6,0-10,2.1-11.9,4.6l-34.6,46.2c-0.1,0.2-0.2,0.3-0.2,0.4c0.2,0.5,2.6,1.9,8.5,1.9h237.2c5.9,0,8.3-1.5,8.5-2l0,0
			c0,0-0.1-0.1-0.2-0.3l-34.6-46.2c-1.9-2.5-7.3-4.6-11.9-4.6L121.6,229.1L121.6,229.1z"/>
	</g>
	<g class="st1">
		<path d="M224.8,204.9h-45.2c-0.5,0-1-0.4-1-1c0-0.5,0.4-1,1-1h45.2c0.5,0,1,0.4,1,1C225.8,204.5,225.3,204.9,224.8,204.9z"/>
		<g>
			<path d="M201.8,198.1c-0.5,0-1-0.4-1-1v-16.9c0-0.5,0.4-1,1-1s1,0.4,1,1v16.9C202.8,197.6,202.3,198.1,201.8,198.1z"/>
			<path d="M201.8,198.1c-0.3,0-0.5-0.1-0.7-0.3l-5.6-5.6c-0.4-0.4-0.4-1,0-1.4c0.4-0.4,1-0.4,1.4,0l4.9,4.9l5-4.9
				c0.4-0.4,1-0.4,1.4,0c0.4,0.4,0.4,1,0,1.4l-5.6,5.6C202.3,198,202,198.1,201.8,198.1z"/>
		</g>
	</g>
	<path class="st1" d="M309.2,265.4H96c-0.4,0-0.7-0.2-0.9-0.5c-0.2-0.3-0.1-0.7,0.1-1l19.4-28.5c0.2-0.3,0.5-0.4,0.8-0.4h174.3
		c0.3,0,0.6,0.2,0.8,0.4l19.4,28.5c0.2,0.3,0.2,0.7,0.1,1C309.9,265.2,309.5,265.4,309.2,265.4z M97.9,263.5h209.4l-18-26.6H116
		L97.9,263.5z"/>
	<g class="st1">
		<path d="M216.3,176.8c-0.5,0-1.1-0.2-1.5-0.7c-0.2-0.2-4.5-4.9-13-4.9c-8.6,0-12.9,4.7-13,4.9c-0.7,0.8-1.9,0.9-2.8,0.2
			c-0.8-0.7-0.9-1.9-0.2-2.7c0.2-0.3,5.5-6.3,16-6.3c10.4,0,15.8,6,16,6.3c0.7,0.8,0.6,2-0.2,2.8
			C217.2,176.7,216.8,176.8,216.3,176.8z"/>
		<path d="M222.4,169.6c-0.5,0-1.1-0.2-1.5-0.7c-0.2-0.2-6.5-6.9-19.1-6.9s-19,6.8-19.1,7c-0.7,0.8-2,0.9-2.8,0.2
			c-0.8-0.7-0.9-1.9-0.2-2.8c0.3-0.3,7.6-8.3,22-8.3c14.4,0,21.7,7.9,22,8.3c0.7,0.8,0.6,2-0.2,2.8
			C223.3,169.4,222.8,169.6,222.4,169.6z"/>
		<path d="M228.4,162.3c-0.5,0-1.1-0.2-1.4-0.6c-0.1-0.2-8.6-9-25.2-9s-25,8.8-25.2,9c-0.7,0.8-2,0.9-2.8,0.1
			c-0.8-0.7-0.9-2-0.1-2.8c0.4-0.4,9.7-10.3,28.1-10.3s27.7,9.8,28.1,10.3c0.7,0.8,0.7,2-0.1,2.8
			C229.4,162.1,228.9,162.3,228.4,162.3z"/>
		<path d="M234.5,155c-0.5,0-1-0.2-1.4-0.6c-0.1-0.1-10.7-11-31.2-11s-31.1,10.9-31.2,11c-0.7,0.8-2,0.8-2.8,0.1
			c-0.8-0.7-0.8-2-0.1-2.8c0.5-0.5,11.7-12.3,34.1-12.3c22.4,0,33.6,11.8,34.1,12.3c0.7,0.8,0.7,2-0.1,2.8
			C235.4,154.9,235,155,234.5,155z"/>
		<path d="M240.5,147.8c-0.5,0-1-0.2-1.4-0.6c-0.1-0.1-12.7-13-37.3-13s-37.2,12.9-37.3,13c-0.7,0.8-2,0.8-2.8,0.1
			c-0.8-0.7-0.8-2-0.1-2.8c0.6-0.6,13.8-14.3,40.1-14.3s39.6,13.7,40.1,14.3c0.7,0.8,0.7,2-0.1,2.8
			C241.5,147.6,241,147.8,240.5,147.8z"/>
	</g>
	<g class="st1">
		<path d="M320.6,294.7H83.4c-3.2,0-8.8-0.4-11.3-3.1c-0.8-0.9-1.2-2-1.1-3.2l0-7.8c0-0.2,0-0.4,0-0.6v-0.1c0-1.7,2.4-2.5,3.5-1.2
			c0.4,0.4,0.5,1,0.4,1.6v0.1c0.3,0.5,2.7,1.9,8.5,1.9h237.2c5.6,0,8.1-1.4,8.4-1.9v-0.2c-0.1-0.5,0.1-1.1,0.4-1.5
			c1-1.3,3.4-0.5,3.5,1.2c0,0.3,0,0.6,0,0.9v7.9c0.1,0.9-0.2,2-1.1,2.9C329.5,294.3,323.8,294.7,320.6,294.7z M74.9,284.8v3.8
			c0.2,0.7,2.6,2.2,8.5,2.2h237.2c5.8,0,8.3-1.5,8.5-2l0-4c-2.1,0.8-5,1.3-8.4,1.3H83.4C79.9,286.1,77,285.7,74.9,284.8z"/>
	</g>
</g>
<g>
	<g>
		<g>
			<path d="M287.1,228.4H117.2c-6.6,0-11.9-5.4-11.9-11.9v-98.8c0-6.6,5.3-11.9,11.9-11.9h169.9c6.6,0,11.9,5.3,11.9,11.9v98.8
				C299,223.1,293.7,228.4,287.1,228.4z M117.2,109.7c-4.4,0-8,3.6-8,8v98.8c0,4.4,3.6,8,8,8h169.9c4.4,0,8-3.6,8-8v-98.8
				c0-4.4-3.6-8-8-8H117.2z"/>
		</g>
		<path d="M288.2,218.1h-172c-0.5,0-1-0.4-1-1v-99.9c0-0.5,0.4-1,1-1h172c0.5,0,1,0.4,1,1v99.9C289.2,217.6,288.7,218.1,288.2,218.1
			z M117.1,216.1h170.1v-98H117.1L117.1,216.1L117.1,216.1z"/>
	</g>
	<g>
		<path d="M320.6,286.1H83.4c-6.3,0-10.7-1.5-12-4.1c-0.4-0.8-0.9-2.5,0.6-4.4l34.6-46.2c2.6-3.5,9.2-6.2,15.1-6.2h160.7
			c5.8,0,12.5,2.7,15.1,6.2l34.6,46.2c1.4,1.9,1,3.6,0.6,4.4C330.7,285.7,323.6,286.1,320.6,286.1z M121.6,229.1
			c-4.6,0-10,2.1-11.9,4.6l-34.6,46.2c-0.1,0.2-0.2,0.3-0.2,0.4c0.2,0.5,2.6,1.9,8.5,1.9h237.2c5.9,0,8.3-1.5,8.5-2l0,0
			c0,0-0.1-0.1-0.2-0.3l-34.6-46.2c-1.9-2.5-7.3-4.6-11.9-4.6L121.6,229.1L121.6,229.1z"/>
	</g>
	<path d="M224.8,204.9h-45.2c-0.5,0-1-0.4-1-1c0-0.5,0.4-1,1-1h45.2c0.5,0,1,0.4,1,1C225.8,204.5,225.3,204.9,224.8,204.9z"/>
	<g>
		<path d="M201.8,179.2c0.5,0,1,0.4,1,1v16.9c0,0.5-0.4,1-1,1c-0.5,0-1-0.4-1-1v-16.9C200.8,179.6,201.3,179.2,201.8,179.2z"/>
		<path d="M201.8,179.2c0.3,0,0.5,0.1,0.7,0.3l5.6,5.6c0.4,0.4,0.4,1,0,1.4s-1,0.4-1.4,0l-4.9-4.9l-5,4.9c-0.4,0.4-1,0.4-1.4,0
			s-0.4-1,0-1.4l5.6-5.6C201.3,179.3,201.6,179.2,201.8,179.2z"/>
	</g>
	<path d="M309.2,265.4H96c-0.4,0-0.7-0.2-0.9-0.5c-0.2-0.3-0.1-0.7,0.1-1l19.4-28.5c0.2-0.3,0.5-0.4,0.8-0.4h174.3
		c0.3,0,0.6,0.2,0.8,0.4l19.4,28.5c0.2,0.3,0.2,0.7,0.1,1C309.9,265.2,309.5,265.4,309.2,265.4z M97.9,263.5h209.4l-18-26.6H116
		L97.9,263.5z"/>
	<g>
		<path d="M216.3,176.8c-0.5,0-1.1-0.2-1.5-0.7c-0.2-0.2-4.5-4.9-13-4.9c-8.6,0-12.9,4.7-13,4.9c-0.7,0.8-1.9,0.9-2.8,0.2
			c-0.8-0.7-0.9-1.9-0.2-2.7c0.2-0.3,5.5-6.3,16-6.3c10.4,0,15.8,6,16,6.3c0.7,0.8,0.6,2-0.2,2.8
			C217.2,176.7,216.8,176.8,216.3,176.8z"/>
		<path d="M222.4,169.6c-0.5,0-1.1-0.2-1.5-0.7c-0.2-0.2-6.5-6.9-19.1-6.9s-19,6.8-19.1,7c-0.7,0.8-2,0.9-2.8,0.2
			c-0.8-0.7-0.9-1.9-0.2-2.8c0.3-0.3,7.6-8.3,22-8.3c14.4,0,21.7,7.9,22,8.3c0.7,0.8,0.6,2-0.2,2.8
			C223.3,169.4,222.8,169.6,222.4,169.6z"/>
		<path d="M228.4,162.3c-0.5,0-1.1-0.2-1.4-0.6c-0.1-0.2-8.6-9-25.2-9s-25,8.8-25.2,9c-0.7,0.8-2,0.9-2.8,0.1
			c-0.8-0.7-0.9-2-0.1-2.8c0.4-0.4,9.7-10.3,28.1-10.3s27.7,9.8,28.1,10.3c0.7,0.8,0.7,2-0.1,2.8
			C229.4,162.1,228.9,162.3,228.4,162.3z"/>
		<path d="M234.5,155c-0.5,0-1-0.2-1.4-0.6c-0.1-0.1-10.7-11-31.2-11s-31.1,10.9-31.2,11c-0.7,0.8-2,0.8-2.8,0.1
			c-0.8-0.7-0.8-2-0.1-2.8c0.5-0.5,11.7-12.3,34.1-12.3c22.4,0,33.6,11.8,34.1,12.3c0.7,0.8,0.7,2-0.1,2.8
			C235.4,154.9,235,155,234.5,155z"/>
		<path d="M240.5,147.8c-0.5,0-1-0.2-1.4-0.6c-0.1-0.1-12.7-13-37.3-13s-37.2,12.9-37.3,13c-0.7,0.8-2,0.8-2.8,0.1
			c-0.8-0.7-0.8-2-0.1-2.8c0.6-0.6,13.8-14.3,40.1-14.3s39.6,13.7,40.1,14.3c0.7,0.8,0.7,2-0.1,2.8
			C241.5,147.6,241,147.8,240.5,147.8z"/>
	</g>
	<g>
		<path d="M320.6,294.7H83.4c-3.2,0-8.8-0.4-11.3-3.1c-0.8-0.9-1.2-2-1.1-3.2l0-7.8c0-0.2,0-0.4,0-0.6v-0.1c0-1.7,2.4-2.5,3.5-1.2
			c0.4,0.4,0.5,1,0.4,1.6v0.1c0.3,0.5,2.7,1.9,8.5,1.9h237.2c5.6,0,8.1-1.4,8.4-1.9v-0.2c-0.1-0.5,0.1-1.1,0.4-1.5
			c1-1.3,3.4-0.5,3.5,1.2c0,0.3,0,0.6,0,0.9v7.9c0.1,0.9-0.2,2-1.1,2.9C329.5,294.3,323.8,294.7,320.6,294.7z M74.9,284.8v3.8
			c0.2,0.7,2.6,2.2,8.5,2.2h237.2c5.8,0,8.3-1.5,8.5-2l0-4c-2.1,0.8-5,1.3-8.4,1.3H83.4C79.9,286.1,77,285.7,74.9,284.8z"/>
	</g>
</g>
<rect x="1" y="1" class="st9" width="400" height="400"/>
</svg>
